<svg width="90" height="90" viewBox="0 0 90 90" fill="none" xmlns="http://www.w3.org/2000/svg">
<path d="M62.8034 71.1506H4.51855V75.728H62.8034V71.1506Z" fill="#00B3D8"/>
<path d="M37.969 76.5366H29.5034V85.0022H37.969V76.5366Z" fill="#00B3D8"/>
<path d="M85.7814 23.4898C85.784 21.8849 85.4137 20.3015 84.6997 18.8642C83.9857 17.4269 82.9475 16.1752 81.6671 15.2078C80.3866 14.2404 78.8989 13.5836 77.3213 13.2894C75.7437 12.9953 74.1192 13.0716 72.5762 13.5126C72.0848 12.1752 71.2407 10.9957 70.1334 10.0991C69.026 9.20253 67.6967 8.62228 66.2864 8.41989C64.876 8.21749 63.4372 8.40049 62.1224 8.94947C60.8077 9.49845 59.6659 10.393 58.8183 11.5382C58.8374 9.55044 58.1079 7.62826 56.7749 6.15362C55.4419 4.67899 53.6029 3.75983 51.6233 3.57881C49.6438 3.39779 47.6685 3.96815 46.0902 5.17656C44.5118 6.38497 43.4458 8.14297 43.1041 10.1012C42.2044 8.82656 40.9485 7.84591 39.4937 7.28224C38.039 6.71856 36.4501 6.59695 34.9265 6.93266C33.4029 7.26837 32.0123 8.04645 30.9292 9.16933C29.846 10.2922 29.1185 11.7099 28.8379 13.2446C23.4304 8.7023 14.9213 13.6055 16.1206 20.621C4.78589 29.8519 14.944 47.9106 28.7573 42.5297C28.8808 44.2158 29.543 45.8175 30.6462 47.0986C31.7493 48.3796 33.2351 49.2721 34.8842 49.6444C36.5332 50.0167 38.2583 49.8491 39.8049 49.1663C41.3514 48.4834 42.6375 47.3216 43.4734 45.8521C48.2074 50.2133 56.7477 48.3483 59.3152 42.5351C66.1113 51.5239 80.2518 44.6899 77.5133 33.6856C79.8552 33.1989 81.9571 31.9184 83.4637 30.0606C84.9703 28.2028 85.789 25.8817 85.7814 23.4898Z" fill="#00B3D8"/>
<path d="M75.5088 12.3735C74.8067 12.3738 74.1062 12.4384 73.4159 12.5664C72.7967 11.3978 71.9358 10.3743 70.8905 9.56398C69.8452 8.7537 68.6393 8.1752 67.3532 7.86695C66.067 7.55869 64.73 7.52773 63.4309 7.77613C62.1318 8.02452 60.9005 8.54659 59.8188 9.30762C59.2488 7.53287 58.1604 5.96949 56.6938 4.81892C55.2272 3.66836 53.4497 2.98334 51.5902 2.85213C49.7308 2.72093 47.8747 3.14955 46.2611 4.08277C44.6475 5.01598 43.3503 6.41103 42.5367 8.08815C41.4088 7.17969 40.0853 6.54575 38.6705 6.23636C37.2558 5.92697 35.7884 5.95059 34.3844 6.30536C32.9803 6.66012 31.6779 7.33633 30.5798 8.28061C29.4818 9.2249 28.6183 10.4114 28.0574 11.7466C21.8865 8.4779 14.0507 13.7535 14.6636 20.7279C12.4969 22.6601 10.9708 25.2071 10.289 28.0291C9.60715 30.851 9.802 33.8138 10.8475 36.5221H7.06592C5.94741 36.5233 4.87506 36.9682 4.08416 37.7591C3.29326 38.55 2.84839 39.6224 2.84717 40.7409V73.0846C2.84839 74.2031 3.29326 75.2755 4.08416 76.0664C4.87506 76.8573 5.94741 77.3021 7.06592 77.3034H28.1597V84.3346H23.9409C23.5728 84.342 23.2223 84.4934 22.9646 84.7564C22.7069 85.0193 22.5626 85.3728 22.5626 85.741C22.5626 86.1091 22.707 86.4626 22.9647 86.7255C23.2225 86.9884 23.573 87.1398 23.9411 87.1471H43.6284C44.0014 87.1471 44.3591 86.999 44.6228 86.7352C44.8865 86.4715 45.0347 86.1138 45.0347 85.7409C45.0347 85.3679 44.8865 85.0102 44.6228 84.7465C44.3591 84.4828 44.0014 84.3346 43.6284 84.3346H39.4097V77.3034H60.5034C61.6219 77.3021 62.6943 76.8573 63.4852 76.0664C64.2761 75.2755 64.721 74.2031 64.7222 73.0846V48.4257C66.5858 48.8764 68.5312 48.866 70.3898 48.3951C72.2485 47.9243 73.9642 47.0074 75.3885 45.7237C76.8128 44.4401 77.9025 42.8285 78.5634 41.0287C79.2242 39.2288 79.4361 37.295 79.1809 35.3947C91.6445 31.0621 88.7904 12.5771 75.5088 12.3735ZM36.5972 84.3346H30.9722V77.3034H36.5972V84.3346ZM61.9097 73.0846C61.9092 73.4574 61.7609 73.8148 61.4973 74.0785C61.2336 74.3421 60.8762 74.4904 60.5034 74.4909H7.06592C6.69311 74.4904 6.3357 74.3421 6.07208 74.0785C5.80847 73.8148 5.66015 73.4574 5.65967 73.0846V40.7409C5.66015 40.3681 5.80847 40.0107 6.07208 39.747C6.3357 39.4834 6.69311 39.3351 7.06592 39.3346H12.2991C13.4473 41.0528 14.9594 42.4973 16.7283 43.5656C18.4972 44.634 20.4796 45.3001 22.5347 45.5166V55.5177C23.4694 55.4708 24.4084 55.5217 25.3472 55.5388V45.4974C26.1411 45.4275 26.9275 45.2892 27.6976 45.0839C28.1732 46.8094 29.1306 48.3636 30.4577 49.5646C31.7848 50.7655 33.4267 51.5634 35.1909 51.8649V62.9072H37.7595C37.8432 62.9086 37.9259 62.9256 38.0034 62.9574V51.8775C40.297 51.528 42.3784 50.3372 43.842 48.537C45.0662 49.3135 46.4245 49.8549 47.8472 50.1334V55.7263H50.6597V50.3598C52.408 50.2872 54.1172 49.8197 55.6591 48.9923C57.201 48.1649 58.5356 46.9991 59.5626 45.5824C60.2697 46.2531 61.0582 46.8322 61.9097 47.3061V73.0846ZM77.2686 32.9989C75.3183 33.466 76.6256 35.6889 76.481 36.9829C76.4905 39.3553 75.5587 41.6346 73.8899 43.3209C72.2211 45.0071 69.9517 45.9627 67.5793 45.9779C66.1964 45.9793 64.8326 45.6548 63.5986 45.0306C62.3645 44.4064 61.295 43.5002 60.4766 42.3854C60.3312 42.1955 60.1399 42.0454 59.9209 41.9493C59.7018 41.8532 59.4619 41.8142 59.2236 41.8358C58.9853 41.8574 58.7564 41.9389 58.5582 42.0729C58.3599 42.2068 58.1988 42.3888 58.0899 42.6018C57.4935 43.8076 56.6311 44.8622 55.5677 45.6861C54.5043 46.51 53.2677 47.0817 51.9512 47.3581C50.6347 47.6344 49.2726 47.6083 47.9676 47.2815C46.6627 46.9547 45.449 46.3359 44.4181 45.4718C44.2599 45.3393 44.0747 45.243 43.8754 45.1898C43.6761 45.1365 43.4675 45.1274 43.2643 45.1633C43.0612 45.1992 42.8683 45.2791 42.6993 45.3974C42.5303 45.5157 42.3893 45.6696 42.286 45.8482C41.6008 47.059 40.5436 48.0168 39.2713 48.5797C37.999 49.1426 36.5792 49.2806 35.2222 48.9733C33.8653 48.666 32.6435 47.9297 31.7379 46.8735C30.8323 45.8174 30.291 44.4975 30.1943 43.1096C30.1644 42.7577 30.0039 42.4297 29.7444 42.1901C29.485 41.9505 29.1452 41.8167 28.7921 41.8149C16.3648 46.9071 6.70448 31.0231 17.0279 22.4148C17.7333 21.8802 17.4963 20.9342 17.448 20.1806C17.4405 18.4417 18.1231 16.7708 19.346 15.5344C20.5688 14.298 22.2322 13.5971 23.9711 13.5854C25.4384 13.5921 26.8587 14.1034 27.9935 15.0336C28.1845 15.1828 28.4107 15.2806 28.6504 15.3174C28.89 15.3542 29.1351 15.3289 29.3621 15.2438C29.5892 15.1588 29.7906 15.0169 29.9471 14.8317C30.1036 14.6466 30.21 14.4243 30.256 14.1862C30.485 12.9235 31.082 11.7566 31.9721 10.8321C32.8622 9.90756 34.0057 9.26671 35.2589 8.99C36.512 8.71329 37.819 8.81308 39.0157 9.27682C40.2123 9.74055 41.2452 10.5476 41.9846 11.5965C42.1464 11.8211 42.3705 11.9933 42.6291 12.0919C42.8877 12.1905 43.1695 12.2112 43.4398 12.1513C43.71 12.0915 43.9568 11.9537 44.1496 11.7551C44.3423 11.5565 44.4727 11.3057 44.5245 11.0338C44.8068 9.42335 45.6849 7.97808 46.9841 6.98534C48.2833 5.99259 49.9085 5.52508 51.5366 5.67573C53.1647 5.82639 54.6765 6.58417 55.7715 7.79845C56.8665 9.01273 57.4644 10.5946 57.4465 12.2296C57.4514 12.5233 57.5478 12.8083 57.7221 13.0448C57.8965 13.2813 58.1402 13.4577 58.4193 13.5493C58.6985 13.6409 58.9993 13.6433 59.2799 13.5562C59.5605 13.469 59.807 13.2966 59.9851 13.0629C60.6818 12.1216 61.6204 11.3865 62.7012 10.9355C63.7819 10.4846 64.9646 10.3345 66.1238 10.5014C67.2829 10.6683 68.3753 11.1458 69.285 11.8834C70.1946 12.6209 70.8877 13.5909 71.2906 14.6905C71.4146 15.025 71.6609 15.3001 71.9797 15.4601C72.2986 15.6201 72.6663 15.6532 73.0086 15.5527C84.9433 12.5477 89.1747 30.0698 77.2686 32.9989Z" fill="#00B3D8"/>
<path d="M29.504 57.4778C29.317 64.8601 18.495 64.8587 18.3091 57.4776C18.4961 50.0954 29.3181 50.0969 29.504 57.4778ZM42.1603 64.509C41.9733 71.8914 31.1512 71.8899 30.9653 64.5089C31.1523 57.1267 41.9744 57.1281 42.1603 64.509ZM54.8166 57.5675C54.6295 64.9499 43.8075 64.9484 43.6216 57.5674C43.8086 50.1852 54.6306 50.1866 54.8166 57.5675Z" fill="#00B3D8"/>
</svg>
