<svg width="80" height="80" viewBox="0 0 80 80" fill="none" xmlns="http://www.w3.org/2000/svg">
<g clip-path="url(#clip0_129_88)">
<path d="M40 79.8892C62.0914 79.8892 80 61.9806 80 39.8892C80 17.7978 62.0914 -0.11084 40 -0.11084C17.9086 -0.11084 0 17.7978 0 39.8892C0 61.9806 17.9086 79.8892 40 79.8892Z" fill="#25B7D3"/>
<path d="M63.2725 53.5092C63.2726 53.787 63.2179 54.0622 63.1117 54.3189C63.0054 54.5757 62.8495 54.8089 62.6531 55.0054C62.4566 55.2019 62.2233 55.3577 61.9666 55.464C61.7099 55.5703 61.4347 55.6249 61.1569 55.6248H18.8427C18.5648 55.6249 18.2897 55.5703 18.033 55.464C17.7762 55.3577 17.543 55.2019 17.3465 55.0054C17.15 54.8089 16.9942 54.5757 16.8879 54.3189C16.7816 54.0622 16.727 53.787 16.7271 53.5092V23.8896C16.727 23.6117 16.7816 23.3366 16.8879 23.0798C16.9942 22.8231 17.15 22.5898 17.3465 22.3934C17.543 22.1969 17.7762 22.0411 18.033 21.9348C18.2897 21.8285 18.5648 21.7738 18.8427 21.7739H61.1569C61.4347 21.7738 61.7099 21.8285 61.9666 21.9348C62.2233 22.0411 62.4566 22.1969 62.6531 22.3934C62.8495 22.5898 63.0054 22.8231 63.1117 23.0798C63.2179 23.3366 63.2726 23.6117 63.2725 23.8896V53.5092Z" fill="#3E3E3F"/>
<path d="M33.6528 55.6255H46.3474V61.0473H33.6528V55.6255Z" fill="#E2E4E5"/>
<path d="M50.578 62.1046C50.578 62.6886 50.1045 63.1627 49.5198 63.1627H30.4791C30.1984 63.1627 29.9293 63.0513 29.7308 62.8528C29.5324 62.6544 29.4209 62.3852 29.4209 62.1046C29.4209 61.8239 29.5324 61.5548 29.7308 61.3563C29.9293 61.1579 30.1984 61.0464 30.4791 61.0464H49.5205C50.1045 61.0464 50.578 61.5198 50.578 62.1046Z" fill="#F0F1F1"/>
<path d="M63.2725 53.509V47.1621H16.7271V53.509C16.7272 54.0701 16.9502 54.6081 17.3469 55.0048C17.7436 55.4015 18.2816 55.6245 18.8427 55.6247H61.1569C61.4347 55.6248 61.7099 55.5701 61.9666 55.4638C62.2233 55.3575 62.4566 55.2017 62.6531 55.0052C62.8495 54.8087 63.0054 54.5755 63.1117 54.3188C63.2179 54.062 63.2726 53.7869 63.2725 53.509Z" fill="white"/>
<path d="M40.0001 54.3684C39.2464 54.3677 38.5237 54.0679 37.9907 53.5349C37.4578 53.0019 37.158 52.2793 37.1572 51.5255C37.1572 49.9575 38.4329 48.6826 40.0001 48.6826C41.5674 48.6826 42.843 49.9575 42.843 51.5255C42.8423 52.2793 42.5425 53.0019 42.0095 53.5349C41.4765 54.0679 40.7539 54.3677 40.0001 54.3684ZM40.0001 50.1372C39.632 50.1374 39.279 50.2837 39.0186 50.544C38.7583 50.8043 38.612 51.1574 38.6118 51.5255C38.6118 52.2906 39.2343 52.9139 40.0001 52.9139C40.766 52.9139 41.3885 52.2913 41.3885 51.5255C41.3881 51.1574 41.2417 50.8045 40.9814 50.5442C40.7211 50.2839 40.3682 50.1375 40.0001 50.1372Z" fill="#CFD3D4"/>
<path d="M16.7271 23.8896V47.1623H31.0718L56.4601 21.7739H18.8427C18.2816 21.7741 17.7436 21.9971 17.3469 22.3938C16.9502 22.7905 16.7272 23.3285 16.7271 23.8896Z" fill="#5B5C5F"/>
<path d="M40.0001 39.8894C46.4267 39.8894 51.6365 34.6796 51.6365 28.2531C51.6365 21.8265 46.4267 16.6167 40.0001 16.6167C33.5735 16.6167 28.3638 21.8265 28.3638 28.2531C28.3638 34.6796 33.5735 39.8894 40.0001 39.8894Z" fill="white"/>
<path d="M47.2003 29.2027C47.1276 29.0276 47.0047 28.8779 46.8471 28.7726C46.6894 28.6672 46.5041 28.6109 46.3145 28.6107H43.8352V21.8995C43.8352 21.37 43.4061 20.9409 42.8767 20.9409H37.1247C36.5952 20.9409 36.1661 21.37 36.1661 21.8995V28.6107H33.6869C33.4971 28.6106 33.3116 28.6667 33.1538 28.7721C32.996 28.8775 32.873 29.0273 32.8004 29.2026C32.7279 29.3779 32.7089 29.5708 32.7461 29.7569C32.7832 29.9429 32.8747 30.1138 33.009 30.2478L39.3043 36.0115C39.3933 36.1005 39.499 36.1711 39.6153 36.2193C39.7316 36.2674 39.8563 36.2922 39.9821 36.2922C40.108 36.2922 40.2327 36.2674 40.349 36.2193C40.4653 36.1711 40.5709 36.1005 40.66 36.0115L46.993 30.2478C47.1269 30.1136 47.2181 29.9427 47.255 29.7567C47.2919 29.5707 47.2728 29.3779 47.2003 29.2027Z" fill="#17B198"/>
</g>
<defs>
<clipPath id="clip0_129_88">
<rect width="80" height="80" fill="white"/>
</clipPath>
</defs>
</svg>
