<svg width="90" height="90" viewBox="0 0 90 90" fill="none" xmlns="http://www.w3.org/2000/svg">
<path d="M88.4941 72.001H61.4941V88.5012H88.4941V72.001Z" fill="#887BB0"/>
<path d="M25.498 69.0012V88.5011H1.49805V61.5012H17.998V69.0012H25.498Z" fill="#887BB0"/>
<path d="M55.498 48.0019V57.0017C55.498 58.6517 50.803 60.0016 44.998 60.0016C39.193 60.0016 34.498 58.6517 34.498 57.0017V48.0019C34.498 49.6519 39.193 51.0019 44.998 51.0019C50.803 51.0019 55.498 49.6519 55.498 48.0019ZM55.498 30.0024V39.0022C55.498 40.6521 50.803 42.0021 44.998 42.0021C39.193 42.0021 34.498 40.6521 34.498 39.0022V30.0024C34.498 31.6524 39.193 33.0023 44.998 33.0023C50.803 33.0023 55.498 31.6524 55.498 30.0024ZM83.4731 12.0028C83.3686 11.7067 83.2484 11.4163 83.113 11.1329L86.668 7.57795L82.423 3.33305L78.868 6.88797C78.5846 6.7526 78.2942 6.63243 77.998 6.52798V1.5031H71.998V6.52798C71.7019 6.63243 71.4114 6.7526 71.128 6.88797L67.573 3.33305L63.328 7.57795L66.883 11.1329C66.7477 11.4163 66.6275 11.7067 66.523 12.0028H61.498V18.0027H66.523C66.6275 18.2989 66.7477 18.5893 66.883 18.8727L63.328 22.4276L67.573 26.6725L71.128 23.1176C71.4114 23.2529 71.7019 23.3731 71.998 23.4776V28.5024H77.998V23.4776C78.2942 23.3731 78.5846 23.2529 78.868 23.1176L82.423 26.6725L86.668 22.4276L83.113 18.8727C83.2484 18.5893 83.3686 18.2989 83.4731 18.0027H88.498V12.0028H83.4731ZM74.998 19.5027C74.108 19.5027 73.238 19.2387 72.498 18.7443C71.758 18.2498 71.1812 17.547 70.8406 16.7248C70.5 15.9026 70.4109 14.9978 70.5845 14.1249C70.7581 13.252 71.1867 12.4502 71.8161 11.8209C72.4454 11.1915 73.2472 10.763 74.1201 10.5893C74.9931 10.4157 75.8979 10.5048 76.7201 10.8454C77.5424 11.186 78.2452 11.7628 78.7397 12.5028C79.2341 13.2428 79.498 14.1128 79.498 15.0028C79.498 16.1962 79.0239 17.3408 78.18 18.1847C77.3361 19.0286 76.1915 19.5027 74.998 19.5027ZM29.998 13.5028C29.998 14.6962 29.5239 15.8408 28.68 16.6847C27.8361 17.5286 26.6915 18.0027 25.498 18.0027H5.99805C4.80457 18.0027 3.65998 17.5286 2.81607 16.6847C1.97215 15.8408 1.49805 14.6962 1.49805 13.5028C1.49805 12.3094 1.97215 11.1648 2.81607 10.3209C3.65998 9.47701 4.80457 9.00291 5.99805 9.00291C6.63019 9.00367 7.25461 9.14186 7.82805 9.4079C7.61776 8.79443 7.50637 8.15141 7.49805 7.50295C7.49409 6.04205 8.0245 4.63012 8.98936 3.53314C9.95421 2.43617 11.2869 1.72987 12.7364 1.54731C14.1859 1.36474 15.6521 1.71851 16.8589 2.54197C18.0656 3.36543 18.9296 4.60173 19.288 6.01799C19.363 6.01799 19.423 6.00299 19.498 6.00299C20.4851 6.00194 21.4446 6.32824 22.2263 6.93081C23.008 7.53337 23.5678 8.37817 23.818 9.33291C24.5005 9.0559 25.2407 8.951 25.9733 9.02747C26.7059 9.10394 27.4084 9.35942 28.019 9.77141C28.6296 10.1834 29.1295 10.7392 29.4746 11.3899C29.8197 12.0406 29.9995 12.7662 29.998 13.5028Z" fill="#887BB0"/>
<path d="M90 18.0022V12.0024C90 11.6046 89.842 11.2231 89.5607 10.9418C89.2794 10.6605 88.8978 10.5024 88.5 10.5024H85.8645L87.7275 8.638C88.0087 8.35671 88.1667 7.97526 88.1667 7.57753C88.1667 7.17979 88.0087 6.79834 87.7275 6.51706L83.4855 2.27519C83.2042 1.99399 82.8227 1.83602 82.425 1.83602C82.0273 1.83602 81.6458 1.99399 81.3645 2.27519L79.5 4.13963V1.50271C79.5 1.1049 79.342 0.723383 79.0607 0.442087C78.7794 0.160791 78.3978 0.00276073 78 0.00276073H72C71.6022 0.00276073 71.2206 0.160791 70.9393 0.442087C70.658 0.723383 70.5 1.1049 70.5 1.50271V4.13963L68.6355 2.27519C68.3489 2.00419 67.9694 1.85319 67.575 1.85319C67.1806 1.85319 66.8011 2.00419 66.5145 2.27519L62.2725 6.51706C61.9913 6.79834 61.8333 7.17979 61.8333 7.57753C61.8333 7.97526 61.9913 8.35671 62.2725 8.638L64.1355 10.5024H61.5C61.1022 10.5024 60.7206 10.6605 60.4393 10.9418C60.158 11.2231 60 11.6046 60 12.0024V13.5023H45C44.6022 13.5023 44.2206 13.6604 43.9393 13.9417C43.658 14.223 43.5 14.6045 43.5 15.0023V25.5395C40.2 25.6895 33 26.423 33 30.0018V34.5017H16.5V19.5022H25.5C27.0913 19.5022 28.6174 18.87 29.7426 17.7449C30.8679 16.6197 31.5 15.0936 31.5 13.5023C31.5 11.9111 30.8679 10.385 29.7426 9.25984C28.6174 8.13465 27.0913 7.50253 25.5 7.50253C25.2351 7.50244 24.9705 7.52048 24.708 7.55653C24.2605 6.76353 23.6387 6.08253 22.8896 5.56493C22.1405 5.04734 21.2835 4.70666 20.3835 4.56862C19.7096 2.97679 18.5056 1.66716 16.976 0.861963C15.4463 0.0567647 13.6852 -0.194399 11.9914 0.151093C10.2976 0.496585 8.77553 1.41745 7.68346 2.75742C6.59139 4.0974 5.99659 5.77393 6 7.50253C4.4087 7.50253 2.88258 8.13465 1.75736 9.25984C0.632141 10.385 0 11.9111 0 13.5023C0 15.0936 0.632141 16.6197 1.75736 17.7449C2.88258 18.87 4.4087 19.5022 6 19.5022H13.5V36.0017C13.5 36.3995 13.658 36.781 13.9393 37.0623C14.2206 37.3436 14.6022 37.5016 15 37.5016H33V57.001C33 60.5799 40.2 61.3134 43.5 61.4634V76.5004H27V69.0006C26.9999 68.6029 26.8418 68.2214 26.5605 67.9402L19.0605 60.4404C18.7793 60.1591 18.3978 60.001 18 60.0009H1.5C1.10218 60.0009 0.720644 60.1589 0.43934 60.4402C0.158035 60.7215 0 61.1031 0 61.5009V88.5C0 88.8979 0.158035 89.2794 0.43934 89.5607C0.720644 89.842 1.10218 90 1.5 90H25.5C25.8978 90 26.2794 89.842 26.5607 89.5607C26.842 89.2794 27 88.8979 27 88.5V79.5003H45C45.3978 79.5003 45.7794 79.3423 46.0607 79.061C46.342 78.7797 46.5 78.3982 46.5 78.0004V61.4634C49.8 61.3134 57 60.5799 57 57.001V46.5013H70.5V64.5008H61.5C61.1022 64.5008 60.7206 64.6588 60.4393 64.9401C60.158 65.2214 60 65.6029 60 66.0007V88.5C60 88.8979 60.158 89.2794 60.4393 89.5607C60.7206 89.842 61.1022 90 61.5 90H88.5C88.8978 90 89.2794 89.842 89.5607 89.5607C89.842 89.2794 90 88.8979 90 88.5V63.0008C90 62.603 89.842 62.2215 89.5607 61.9402C89.2794 61.6589 88.8978 61.5009 88.5 61.5009H78C77.6022 61.501 77.2207 61.659 76.9395 61.9404L74.379 64.5008H73.5V45.0014C73.5 44.6036 73.342 44.222 73.0607 43.9408C72.7794 43.6595 72.3978 43.5014 72 43.5014H57V30.0018C57 26.423 49.8 25.6895 46.5 25.5395V16.5023H60V18.0022C60 18.4 60.158 18.7815 60.4393 19.0628C60.7206 19.3441 61.1022 19.5022 61.5 19.5022H64.1355L62.2725 21.3666C61.9913 21.6479 61.8333 22.0293 61.8333 22.4271C61.8333 22.8248 61.9913 23.2063 62.2725 23.4875L66.5145 27.7294C66.7958 28.0106 67.1773 28.1686 67.575 28.1686C67.9727 28.1686 68.3542 28.0106 68.6355 27.7294L70.5 25.865V28.5019C70.5 28.8997 70.658 29.2812 70.9393 29.5625C71.2206 29.8438 71.6022 30.0018 72 30.0018H78C78.3978 30.0018 78.7794 29.8438 79.0607 29.5625C79.342 29.2812 79.5 28.8997 79.5 28.5019V25.865L81.3645 27.7294C81.6511 28.0004 82.0306 28.1514 82.425 28.1514C82.8194 28.1514 83.1989 28.0004 83.4855 27.7294L87.7275 23.4875C88.0087 23.2063 88.1667 22.8248 88.1667 22.4271C88.1667 22.0293 88.0087 21.6479 87.7275 21.3666L85.8645 19.5022H88.5C88.8978 19.5022 89.2794 19.3441 89.5607 19.0628C89.842 18.7815 90 18.4 90 18.0022ZM3 13.5023C3 12.7067 3.31607 11.9437 3.87868 11.3811C4.44129 10.8185 5.20435 10.5024 6 10.5024C6.4215 10.5037 6.83784 10.5953 7.221 10.7709C7.48714 10.8906 7.78241 10.9301 8.07066 10.8846C8.3589 10.839 8.62759 10.7103 8.8438 10.5143C9.06002 10.3183 9.21436 10.0636 9.28793 9.78116C9.3615 9.49877 9.3511 9.20105 9.258 8.92449C9.0812 8.3573 9.01902 7.7606 9.07506 7.16915C9.13111 6.5777 9.30427 6.0033 9.58446 5.47942C9.86465 4.95553 10.2463 4.49262 10.7071 4.11764C11.1679 3.74267 11.6988 3.46311 12.2687 3.29527C12.8386 3.12742 13.4362 3.07464 14.0267 3.13998C14.6173 3.20533 15.1889 3.3875 15.7083 3.67589C16.2277 3.96428 16.6846 4.35313 17.0523 4.81979C17.42 5.28645 17.6911 5.82159 17.85 6.39406C17.9322 6.72906 18.1286 7.02493 18.4054 7.2308C18.6821 7.43666 19.022 7.53964 19.3665 7.52203C19.44 7.51753 19.5195 7.50253 19.5 7.50253C20.1571 7.50631 20.7948 7.72571 21.3151 8.12703C21.8354 8.52835 22.2095 9.08939 22.38 9.72396C22.4355 9.92835 22.5336 10.1187 22.6679 10.2824C22.8022 10.4462 22.9697 10.5796 23.1592 10.674C23.3488 10.7683 23.5563 10.8215 23.7679 10.8299C23.9795 10.8384 24.1905 10.8019 24.387 10.7229C24.7978 10.5561 25.2405 10.4824 25.6832 10.5072C26.1258 10.5319 26.5575 10.6544 26.9472 10.866C27.3369 11.0775 27.6748 11.3728 27.9366 11.7306C28.1985 12.0884 28.3778 12.4997 28.4617 12.9351C28.5455 13.3705 28.5318 13.819 28.4215 14.2484C28.3113 14.6779 28.1072 15.0775 27.824 15.4187C27.5407 15.7598 27.1854 16.0339 26.7836 16.2212C26.3818 16.4086 25.9434 16.5046 25.5 16.5023H6C5.20435 16.5023 4.44129 16.1862 3.87868 15.6236C3.31607 15.061 3 14.298 3 13.5023ZM19.5 65.1218L21.879 67.5007H19.5V65.1218ZM3 87.0001V63.0008H16.5V69.0006C16.5 69.3985 16.658 69.78 16.9393 70.0613C17.2206 70.3426 17.6022 70.5006 18 70.5006H24V87.0001H3ZM87 87.0001H63V73.5005H87V87.0001ZM75 67.5007C75.3978 67.5006 75.7793 67.3425 76.0605 67.0612L78.621 64.5008H87V70.5006H63V67.5007H75ZM54 38.7901C53.427 39.4021 50.2815 40.5015 45 40.5015C39.7185 40.5015 36.573 39.4021 36 38.7901V33.1637C41.8674 34.9477 48.1326 34.9477 54 33.1637V38.7901ZM36 42.1635C41.8674 43.9474 48.1326 43.9474 54 42.1635V47.8093C53.37 48.4243 50.217 49.5012 45 49.5012C39.783 49.5012 36.63 48.4243 36 47.8093V42.1635ZM45 58.501C39.783 58.501 36.63 57.424 36 56.809V51.1632C41.8674 52.9472 48.1326 52.9472 54 51.1632V56.809C53.37 57.424 50.217 58.501 45 58.501ZM45 31.5018C42.0091 31.6785 39.0175 31.1653 36.2565 30.0018C39.0175 28.8384 42.0091 28.3252 45 28.5019C47.9909 28.3252 50.9825 28.8384 53.7435 30.0018C50.9825 31.1653 47.9909 31.6785 45 31.5018ZM87 16.5023H83.4765C83.1662 16.5022 82.8635 16.5984 82.6102 16.7776C82.3569 16.9568 82.1653 17.2101 82.062 17.5027C81.9747 17.7503 81.8745 17.9931 81.762 18.2302C81.6296 18.5106 81.5873 18.8252 81.641 19.1306C81.6948 19.436 81.8418 19.7173 82.062 19.9356L84.5535 22.4271L82.425 24.548L79.9335 22.0521C79.7152 21.8322 79.4342 21.6854 79.1291 21.6317C78.824 21.5779 78.5097 21.62 78.2295 21.7521C77.9919 21.8646 77.7485 21.9648 77.5005 22.0521C77.2079 22.1554 76.9546 22.3469 76.7754 22.6003C76.5962 22.8536 76.5 23.1562 76.5 23.4665V27.0019H73.5V23.4785C73.5 23.1682 73.4038 22.8656 73.2246 22.6123C73.0454 22.3589 72.7921 22.1674 72.4995 22.0641C72.2515 21.9768 72.0081 21.8766 71.7705 21.7641C71.4903 21.632 71.176 21.5899 70.8709 21.6437C70.5658 21.6974 70.2848 21.8442 70.0665 22.0641L67.575 24.548L65.454 22.4271L67.95 19.9356C68.1702 19.7173 68.3172 19.436 68.371 19.1306C68.4247 18.8252 68.3824 18.5106 68.25 18.2302C68.1375 17.9931 68.0373 17.7503 67.95 17.5027C67.846 17.2082 67.6526 16.9535 67.3969 16.7741C67.1412 16.5948 66.8358 16.4997 66.5235 16.5023H63V13.5023H66.5235C66.8338 13.5024 67.1365 13.4062 67.3898 13.227C67.6431 13.0478 67.8347 12.7945 67.938 12.5019C68.0253 12.2543 68.1255 12.0115 68.238 11.7744C68.3704 11.494 68.4127 11.1794 68.359 10.874C68.3052 10.5686 68.1582 10.2873 67.938 10.069L65.454 7.57753L67.575 5.45659L70.0665 7.95252C70.2848 8.17236 70.5658 8.31923 70.8709 8.37295C71.176 8.42666 71.4903 8.38459 71.7705 8.25251C72.0081 8.13996 72.2515 8.03982 72.4995 7.95252C72.794 7.84852 73.0487 7.65517 73.2281 7.39945C73.4075 7.14373 73.5025 6.8384 73.5 6.52606V3.00267H76.5V6.52606C76.5 6.83635 76.5962 7.13901 76.7754 7.39234C76.9546 7.64567 77.2079 7.83719 77.5005 7.94052C77.7485 8.02782 77.9919 8.12796 78.2295 8.24051C78.5097 8.37259 78.824 8.41466 79.1291 8.36095C79.4342 8.30723 79.7152 8.16036 79.9335 7.94052L82.425 5.45659L84.546 7.57753L82.05 10.069C81.8298 10.2873 81.6828 10.5686 81.629 10.874C81.5753 11.1794 81.6176 11.494 81.75 11.7744C81.8625 12.0115 81.9627 12.2543 82.05 12.5019C82.1533 12.7945 82.3449 13.0478 82.5982 13.227C82.8515 13.4062 83.1542 13.5024 83.4645 13.5023H87V16.5023Z" fill="#887BB0"/>
<path d="M74.998 9.00134C73.8114 9.00134 72.6513 9.35324 71.6646 10.0125C70.6779 10.6718 69.9089 11.6089 69.4548 12.7053C69.0006 13.8017 68.8818 15.0081 69.1133 16.172C69.3448 17.3359 69.9163 18.405 70.7554 19.2442C71.5945 20.0833 72.6636 20.6547 73.8275 20.8863C74.9914 21.1178 76.1978 20.9989 77.2942 20.5448C78.3905 20.0907 79.3276 19.3216 79.9869 18.3349C80.6462 17.3482 80.998 16.1882 80.998 15.0014C80.998 13.4101 80.3659 11.884 79.2407 10.7587C78.1155 9.63349 76.5893 9.00134 74.998 9.00134ZM74.998 18.0015C74.4047 18.0015 73.8247 17.8255 73.3313 17.4959C72.838 17.1662 72.4535 16.6977 72.2264 16.1495C71.9993 15.6013 71.9399 14.9981 72.0557 14.4162C72.1714 13.8342 72.4572 13.2997 72.8767 12.8801C73.2963 12.4605 73.8308 12.1748 74.4128 12.059C74.9947 11.9433 75.5979 12.0027 76.1461 12.2298C76.6943 12.4568 77.1628 12.8413 77.4925 13.3347C77.8221 13.8281 77.998 14.4081 77.998 15.0014C77.998 15.7971 77.682 16.5602 77.1194 17.1228C76.5568 17.6854 75.7937 18.0015 74.998 18.0015Z" fill="#887BB0"/>
<path d="M72.002 76.4995H66.002V79.4996H72.002V76.4995Z" fill="#887BB0"/>
<path d="M13.5059 66.0017H6.00586V69.002H13.5059V66.0017Z" fill="#887BB0"/>
<path d="M21.0059 72.001H6.00586V75.0012H21.0059V72.001Z" fill="#887BB0"/>
<path d="M9.00586 78.0012H6.00586V81.0006H9.00586V78.0012Z" fill="#887BB0"/>
<path d="M20.999 78.0012H11.999V81.0006H20.999V78.0012Z" fill="#887BB0"/>
</svg>
