<svg width="90" height="90" viewBox="0 0 90 90" fill="none" xmlns="http://www.w3.org/2000/svg">
<path d="M36.5625 63.2812L25.3125 78.75H64.6875L54.8438 63.2812H36.5625Z" fill="#85D2D0"/>
<path d="M85.7812 11.25V64.6875C85.7812 66.2344 84.5156 67.5 82.9688 67.5H7.03125C5.48438 67.5 4.21875 66.2344 4.21875 64.6875V11.25C4.21875 9.70312 5.48438 8.4375 7.03125 8.4375H82.9688C84.5156 8.4375 85.7812 9.70312 85.7812 11.25Z" fill="#85D2D0" fill-opacity="0.4"/>
<path d="M82.9688 8.4375H81.5625V49.2188C81.5625 50.7656 80.2969 52.0312 78.75 52.0312H4.21875V64.6875C4.21875 66.2344 5.48438 67.5 7.03125 67.5H82.9688C84.5156 67.5 85.7812 66.2344 85.7812 64.6875V11.25C85.7812 9.70312 84.5156 8.4375 82.9688 8.4375Z" fill="#85D2D0"/>
<path d="M85.7812 56.25V64.6875C85.7812 66.2344 84.5156 67.5 82.9688 67.5H7.03125C5.48438 67.5 4.21875 66.2344 4.21875 64.6875V56.25H85.7812Z" fill="#85D2D0"/>
<path d="M81.5625 56.25V61.875C81.5625 63.4219 80.2969 64.6875 78.75 64.6875H4.21875C4.21875 66.2344 5.48438 67.5 7.03125 67.5H82.9688C84.5156 67.5 85.7812 66.2344 85.7812 64.6875V56.25H81.5625Z" fill="#85D2D0"/>
<path d="M66.0938 81.5625H23.9062C22.3523 81.5625 21.0938 80.3039 21.0938 78.75C21.0938 77.1961 22.3523 75.9375 23.9062 75.9375H66.0938C67.6477 75.9375 68.9062 77.1961 68.9062 78.75C68.9062 80.3039 67.6477 81.5625 66.0938 81.5625Z" fill="#85D2D0"/>
<path d="M66.0938 75.9375H64.6875C64.6875 77.4914 63.4289 78.75 61.875 78.75H21.0938C21.0938 80.3039 22.3523 81.5625 23.9062 81.5625H66.0938C67.6477 81.5625 68.9062 80.3039 68.9062 78.75C68.9062 77.1961 67.6477 75.9375 66.0938 75.9375Z" fill="#85D2D0"/>
<path d="M87.1875 40.0781V11.25C87.1875 8.92969 85.2891 7.03125 82.9688 7.03125H7.03125C4.71094 7.03125 2.8125 8.92969 2.8125 11.25V64.6875C2.8125 67.0078 4.71094 68.9062 7.03125 68.9062H29.7141L25.9594 74.5312H24.0905C22.05 74.5312 20.1684 75.8981 19.7719 77.8992C19.2389 80.588 21.3075 82.9688 23.9062 82.9688H65.9095C67.95 82.9688 69.8316 81.6019 70.2281 79.6008C70.7611 76.912 68.6925 74.5312 66.0938 74.5312H64.0406L60.2859 68.9062H82.9688C85.2891 68.9062 87.1875 67.0078 87.1875 64.6875V49.9219C87.1875 49.5337 86.8725 49.2188 86.4844 49.2188H85.0781C84.69 49.2188 84.375 49.5337 84.375 49.9219V54.8438H5.625V11.25C5.625 10.4766 6.25781 9.84375 7.03125 9.84375H82.9688C83.7422 9.84375 84.375 10.4766 84.375 11.25V40.0781C84.375 40.4663 84.69 40.7812 85.0781 40.7812H86.4844C86.8725 40.7812 87.1875 40.4663 87.1875 40.0781ZM66.0938 77.3438C66.8672 77.3438 67.5 77.9766 67.5 78.75C67.5 79.5234 66.8672 80.1562 66.0938 80.1562H23.9062C23.1328 80.1562 22.5 79.5234 22.5 78.75C22.5 77.9766 23.1328 77.3438 23.9062 77.3438H66.0938ZM60.6516 74.5312H29.3484L33.1031 68.9062H56.8969L60.6516 74.5312ZM84.375 57.6562V64.6875C84.375 65.4609 83.7422 66.0938 82.9688 66.0938H7.03125C6.25781 66.0938 5.625 65.4609 5.625 64.6875V57.6562H84.375ZM84.375 44.2969V45.7031C84.375 46.0913 84.69 46.4062 85.0781 46.4062H86.4844C86.8725 46.4062 87.1875 46.0913 87.1875 45.7031V44.2969C87.1875 43.9087 86.8725 43.5938 86.4844 43.5938H85.0781C84.69 43.5938 84.375 43.9087 84.375 44.2969Z" fill="#85D2D0"/>
<path d="M43.5938 62.5781V61.1719C43.5938 60.7837 43.9087 60.4688 44.2969 60.4688H45.7031C46.0912 60.4688 46.4062 60.7837 46.4062 61.1719V62.5781C46.4062 62.9662 46.0912 63.2812 45.7031 63.2812H44.2969C43.9087 63.2812 43.5938 62.9662 43.5938 62.5781Z" fill="#85D2D0"/>
<path d="M32.3438 37.9688C29.2416 37.9688 26.7188 35.4459 26.7188 32.3438C26.7188 29.1586 29.2275 25.3125 32.3438 25.3125H33.9778L33.8316 23.6967C33.7767 23.3283 33.75 22.9373 33.75 22.5C33.75 17.8467 37.5342 14.0625 42.1875 14.0625C45.1266 14.0625 47.9039 15.6445 49.4339 18.1898L50.078 19.2628L51.2184 18.7481C51.892 18.4416 52.6598 18.2812 53.4375 18.2812C56.5397 18.2812 59.0625 20.8041 59.0625 23.9062C59.0625 24.0834 59.0498 24.2606 59.0372 24.4491L58.9795 25.3547L59.7783 25.7948C61.7105 26.8228 63.2812 29.7605 63.2812 32.3438C63.2812 35.4459 60.7584 37.9688 57.6562 37.9688H32.3438Z" fill="#85D2D0"/>
<path d="M42.1875 25.3125H47.8125V43.5938H52.0312L45 50.625L37.9688 43.5938H42.1875V25.3125Z" fill="#85D2D0"/>
<path d="M60.4392 24.5461C60.4589 24.3352 60.4688 24.1214 60.4688 23.9062C60.4688 20.0292 57.3145 16.875 53.4375 16.875C52.47 16.875 51.5152 17.0789 50.6405 17.4614C48.8841 14.535 45.6623 12.6562 42.1875 12.6562C36.7608 12.6562 32.3438 17.0733 32.3438 22.5C32.3438 22.9753 32.3761 23.445 32.4422 23.9077C32.4098 23.9062 32.3761 23.9062 32.3438 23.9062C28.3852 23.9062 25.3125 28.4428 25.3125 32.3438C25.3125 36.2208 28.4667 39.375 32.3438 39.375H40.7812V42.1875H37.9688C37.4006 42.1875 36.8859 42.5292 36.6694 43.0552C36.4514 43.5811 36.5723 44.1858 36.9745 44.588L44.0058 51.6192C44.28 51.8934 44.64 52.0312 45 52.0312C45.36 52.0312 45.72 51.8934 45.9942 51.6192L53.0255 44.588C53.4277 44.1858 53.5486 43.5811 53.3306 43.0552C53.1141 42.5292 52.5994 42.1875 52.0312 42.1875H49.2188V39.375H57.6562C61.5333 39.375 64.6875 36.2208 64.6875 32.3438C64.6875 29.4581 62.9972 25.9214 60.4392 24.5461ZM45 48.6366L41.3634 45H42.1875C42.9652 45 43.5938 44.3714 43.5938 43.5938V26.7188H46.4062V43.5938C46.4062 44.3714 47.0348 45 47.8125 45H48.6366L45 48.6366ZM57.6562 36.5625H49.2188V25.3125C49.2188 24.5348 48.5902 23.9062 47.8125 23.9062H42.1875C41.4098 23.9062 40.7812 24.5348 40.7812 25.3125V36.5625H32.3438C30.0178 36.5625 28.125 34.6697 28.125 32.3438C28.125 29.8884 30.1711 26.7188 32.3438 26.7188C32.8655 26.7188 33.3745 26.8172 33.8597 27.0113C34.3828 27.225 34.9861 27.0984 35.3827 26.6948C35.7806 26.2927 35.8988 25.6908 35.6822 25.1677C35.3334 24.3267 35.1562 23.4281 35.1562 22.5C35.1562 18.623 38.3105 15.4688 42.1875 15.4688C45.0605 15.4688 47.693 17.2673 48.7378 19.9462C48.8981 20.3597 49.2455 20.6733 49.6744 20.7914C50.0977 20.9095 50.5617 20.8195 50.9105 20.5467C51.6333 19.9842 52.5066 19.6875 53.4375 19.6875C55.7634 19.6875 57.6562 21.5803 57.6562 23.9062C57.6562 24.3098 57.6056 24.6839 57.5002 25.0495C57.3933 25.4236 57.4453 25.8258 57.645 26.1591C57.8447 26.4923 58.1738 26.73 58.5534 26.813C60.3112 27.1941 61.875 30.2231 61.875 32.3438C61.875 34.6697 59.9822 36.5625 57.6562 36.5625Z" fill="#85D2D0"/>
</svg>
