<svg width="1440" height="490" viewBox="0 0 1440 490" fill="none" xmlns="http://www.w3.org/2000/svg">
<g clip-path="url(#clip0_20_18)">
<rect width="1440" height="490" fill="url(#paint0_linear_20_18)"/>
<rect x="553" y="38" width="30" height="4" fill="#3EB489"/>
<rect x="566" y="55" width="30" height="4" transform="rotate(-90 566 55)" fill="#3EB489"/>
<rect x="556.192" y="49.4058" width="30" height="4" transform="rotate(-45 556.192 49.4058)" fill="#3EB489"/>
<rect x="577.406" y="52.2344" width="30" height="4" transform="rotate(-135 577.406 52.2344)" fill="#3EB489"/>
<rect x="1000" y="14" width="30" height="4" fill="#3EB489"/>
<rect x="1013" y="31" width="30" height="4" transform="rotate(-90 1013 31)" fill="#3EB489"/>
<rect x="1003.19" y="25.4058" width="30" height="4" transform="rotate(-45 1003.19 25.4058)" fill="#3EB489"/>
<rect x="1024.41" y="28.2344" width="30" height="4" transform="rotate(-135 1024.41 28.2344)" fill="#3EB489"/>
<rect x="770" y="75" width="30" height="4" fill="#3EB489"/>
<rect x="783" y="92" width="30" height="4" transform="rotate(-90 783 92)" fill="#3EB489"/>
<rect x="773.192" y="86.4058" width="30" height="4" transform="rotate(-45 773.192 86.4058)" fill="#3EB489"/>
<rect x="794.406" y="89.2344" width="30" height="4" transform="rotate(-135 794.406 89.2344)" fill="#3EB489"/>
<rect x="1258" y="11" width="30" height="4" fill="#3EB489"/>
<rect x="1271" y="28" width="30" height="4" transform="rotate(-90 1271 28)" fill="#3EB489"/>
<rect x="1261.19" y="22.4058" width="30" height="4" transform="rotate(-45 1261.19 22.4058)" fill="#3EB489"/>
<rect x="1282.41" y="25.2344" width="30" height="4" transform="rotate(-135 1282.41 25.2344)" fill="#3EB489"/>
<rect x="314" y="41" width="30" height="4" fill="#3EB489"/>
<rect x="327" y="58" width="30" height="4" transform="rotate(-90 327 58)" fill="#3EB489"/>
<rect x="317.192" y="52.4058" width="30" height="4" transform="rotate(-45 317.192 52.4058)" fill="#3EB489"/>
<rect x="338.406" y="55.2344" width="30" height="4" transform="rotate(-135 338.406 55.2344)" fill="#3EB489"/>
<rect x="120" y="68" width="30" height="4" fill="#3EB489"/>
<rect x="133" y="85" width="30" height="4" transform="rotate(-90 133 85)" fill="#3EB489"/>
<rect x="123.192" y="79.4058" width="30" height="4" transform="rotate(-45 123.192 79.4058)" fill="#3EB489"/>
<rect x="144.406" y="82.2344" width="30" height="4" transform="rotate(-135 144.406 82.2344)" fill="#3EB489"/>
<rect x="942" y="66" width="30" height="4" fill="#3EB489"/>
<rect x="955" y="83" width="30" height="4" transform="rotate(-90 955 83)" fill="#3EB489"/>
<rect x="840" y="26" width="30" height="4" fill="#3EB489"/>
<rect x="853" y="43" width="30" height="4" transform="rotate(-90 853 43)" fill="#3EB489"/>
<rect x="466" y="54" width="30" height="4" fill="#3EB489"/>
<rect x="479" y="71" width="30" height="4" transform="rotate(-90 479 71)" fill="#3EB489"/>
<rect x="1383" y="22" width="30" height="4" fill="#3EB489"/>
<rect x="1396" y="39" width="30" height="4" transform="rotate(-90 1396 39)" fill="#3EB489"/>
<rect x="189" y="27" width="30" height="4" fill="#3EB489"/>
<rect x="202" y="44" width="30" height="4" transform="rotate(-90 202 44)" fill="#3EB489"/>
<rect x="634" y="62" width="30" height="4" fill="#3EB489"/>
<circle cx="649" cy="54" r="4" fill="#3EB489"/>
<circle cx="649" cy="74" r="4" fill="#3EB489"/>
<rect x="1066" y="54" width="30" height="4" fill="#3EB489"/>
<circle cx="1081" cy="46" r="4" fill="#3EB489"/>
<circle cx="1081" cy="66" r="4" fill="#3EB489"/>
<rect x="381" y="76" width="30" height="4" fill="#3EB489"/>
<circle cx="396" cy="68" r="4" fill="#3EB489"/>
<circle cx="396" cy="88" r="4" fill="#3EB489"/>
<rect x="715" y="28" width="30" height="4" fill="#3EB489"/>
<circle cx="730" cy="20" r="4" fill="#3EB489"/>
<circle cx="730" cy="40" r="4" fill="#3EB489"/>
<rect x="1176" y="82" width="30" height="4" fill="#3EB489"/>
<circle cx="1191" cy="74" r="4" fill="#3EB489"/>
<circle cx="1191" cy="94" r="4" fill="#3EB489"/>
<rect x="36" y="25" width="30" height="4" fill="#3EB489"/>
<circle cx="51" cy="17" r="4" fill="#3EB489"/>
<circle cx="51" cy="37" r="4" fill="#3EB489"/>
<rect x="265" y="87" width="30" height="4" fill="#3EB489"/>
<circle cx="280" cy="79" r="4" fill="#3EB489"/>
<circle cx="280" cy="99" r="4" fill="#3EB489"/>
<rect x="1321" y="62" width="30" height="4" fill="#3EB489"/>
<circle cx="1336" cy="54" r="4" fill="#3EB489"/>
<circle cx="1336" cy="74" r="4" fill="#3EB489"/>
<rect x="1153" y="18" width="30" height="4" fill="#3EB489"/>
<rect x="1166" y="35" width="30" height="4" transform="rotate(-90 1166 35)" fill="#3EB489"/>
<path d="M160.99 146.4V147H153.1V146.4H154.87L152.86 142.23H146.8L145.06 146.4H147.43V147H142.3V146.4H144.31L151.18 129.9H151.93L159.55 146.4H160.99ZM147.07 141.6H152.56L149.62 135.48L147.07 141.6ZM178.227 146.4H179.727V147H172.227V146.4H173.727V138C173.727 136.58 173.517 135.57 173.097 134.97C172.677 134.37 172.047 134.07 171.207 134.07C170.067 134.07 169.157 134.67 168.477 135.87V146.4H169.977V147H162.477V146.4H163.977V133.8H162.477V133.2H168.477V134.76C168.857 134.24 169.447 133.8 170.247 133.44C171.067 133.06 171.947 132.87 172.887 132.87C176.447 132.87 178.227 134.8 178.227 138.66V146.4ZM198.853 146.4V147C196.133 147 194.243 146.81 193.183 146.43C192.143 146.03 191.113 145.05 190.093 143.49L188.203 140.58L187.813 140.94V146.4H189.313V147H181.813V146.4H183.313V127.5H181.813V126.9H187.813V140.04L194.083 133.8H191.653V133.2H197.353V133.8H194.983L191.383 137.37L194.983 142.77C196.603 145.19 197.893 146.4 198.853 146.4ZM210.708 147V145.41C210.328 145.95 209.728 146.41 208.908 146.79C208.108 147.15 207.238 147.33 206.298 147.33C202.738 147.33 200.958 145.4 200.958 141.54V133.8H199.458V133.2H205.458V142.2C205.458 143.62 205.668 144.63 206.088 145.23C206.508 145.83 207.138 146.13 207.978 146.13C209.098 146.13 210.008 145.53 210.708 144.33V133.8H209.208V133.2H215.208V146.4H216.708V147H210.708ZM226.315 147H218.815V146.4H220.315V133.8H218.815V133.2H224.815V136.77C224.995 135.79 225.315 134.99 225.775 134.37C226.255 133.75 226.775 133.34 227.335 133.14C227.915 132.94 228.465 132.84 228.985 132.84C229.525 132.84 230.035 132.94 230.515 133.14C231.015 133.32 231.385 133.7 231.625 134.28C231.865 134.84 231.875 135.41 231.655 135.99C231.435 136.55 231.045 136.95 230.485 137.19C229.945 137.43 229.445 137.46 228.985 137.28C228.525 137.1 228.195 136.86 227.995 136.56C227.795 136.24 227.655 135.94 227.575 135.66C227.375 134.92 227.105 134.55 226.765 134.55C226.385 134.55 225.965 135.21 225.505 136.53C225.045 137.83 224.815 139.21 224.815 140.67V146.4H226.315V147ZM247.867 146.4C247.667 146.6 247.287 146.78 246.727 146.94C246.167 147.08 245.517 147.15 244.777 147.15C243.137 147.15 242.107 146.66 241.687 145.68C240.687 146.72 239.157 147.24 237.097 147.24C235.997 147.24 235.087 146.99 234.367 146.49C233.667 145.97 233.317 145.21 233.317 144.21C233.317 142.87 233.837 141.84 234.877 141.12C235.917 140.38 237.737 139.86 240.337 139.56L241.537 139.41V137.94C241.537 136.2 241.407 135.03 241.147 134.43C240.887 133.83 240.367 133.53 239.587 133.53C238.827 133.53 238.337 133.64 238.117 133.86C237.897 134.06 237.817 134.3 237.877 134.58C237.937 134.84 238.037 135.19 238.177 135.63C238.317 136.07 238.387 136.42 238.387 136.68C238.387 137.3 238.167 137.83 237.727 138.27C237.307 138.69 236.787 138.9 236.167 138.9C235.567 138.9 235.047 138.69 234.607 138.27C234.167 137.83 233.947 137.3 233.947 136.68C233.947 135.66 234.467 134.79 235.507 134.07C236.567 133.33 238.137 132.96 240.217 132.96C242.317 132.96 243.807 133.37 244.687 134.19C245.587 135.01 246.037 136.46 246.037 138.54V143.94C246.037 145 246.167 145.67 246.427 145.95C246.687 146.21 247.167 146.26 247.867 146.1V146.4ZM237.487 143.61C237.587 144.37 237.867 144.96 238.327 145.38C238.787 145.78 239.317 145.98 239.917 145.98C240.537 145.98 241.077 145.68 241.537 145.08V139.98L240.457 140.13C239.537 140.25 238.787 140.6 238.207 141.18C237.647 141.76 237.407 142.57 237.487 143.61ZM274.865 146.4H276.365V147H268.865V146.4H270.365V138C270.365 136.58 270.155 135.57 269.735 134.97C269.315 134.37 268.685 134.07 267.845 134.07C267.365 134.07 266.865 134.21 266.345 134.49C265.825 134.77 265.395 135.16 265.055 135.66C265.295 136.38 265.415 137.38 265.415 138.66V146.4H266.915V147H259.115V146.4H260.915V138C260.915 136.58 260.705 135.57 260.285 134.97C259.865 134.37 259.235 134.07 258.395 134.07C257.255 134.07 256.345 134.67 255.665 135.87V146.4H257.165V147H249.665V146.4H251.165V133.8H249.665V133.2H255.665V134.76C256.045 134.24 256.635 133.8 257.435 133.44C258.255 133.06 259.135 132.87 260.075 132.87C262.455 132.87 264.005 133.54 264.725 134.88C265.245 134.24 265.935 133.75 266.795 133.41C267.655 133.05 268.565 132.87 269.525 132.87C273.085 132.87 274.865 134.8 274.865 138.66V146.4Z" fill="#ACAEAF"/>
<path d="M80 126L99.8861 117L119 126" stroke="#5AC69F" stroke-width="3"/>
<path d="M99.903 154V133.507M99.903 154C94.2828 151.641 90.8926 151.275 84 154V133.507C90.8996 130.027 94.279 130.545 99.903 133.507M99.903 154C106.282 151.444 109.669 151.522 115.418 154L116 133.901C110.344 130.156 106.823 130.05 99.903 133.507" stroke="#5AC69F" stroke-width="3"/>
<path d="M130 113H131V160.5H130V113Z" fill="#ACAEAF"/>
<line x1="240" y1="308.5" x2="1440" y2="308.5" stroke="black" stroke-opacity="0.5"/>
</g>
<defs>
<linearGradient id="paint0_linear_20_18" x1="720" y1="490" x2="720" y2="-2.72309e-05" gradientUnits="userSpaceOnUse">
<stop stop-color="#5AC69F" stop-opacity="0.5"/>
<stop offset="1" stop-color="#5AC69F" stop-opacity="0"/>
</linearGradient>
<clipPath id="clip0_20_18">
<rect width="1440" height="490" fill="white"/>
</clipPath>
</defs>
</svg>
