<svg width="80" height="80" viewBox="0 0 80 80" fill="none" xmlns="http://www.w3.org/2000/svg">
<g clip-path="url(#clip0_129_100)">
<path d="M40 80.0001C62.0914 80.0001 80 62.0915 80 40.0001C80 17.9087 62.0914 0 40 0C17.9086 0 0 17.9087 0 40.0001C0 62.0915 17.9086 80.0001 40 80.0001Z" fill="#1D67B1"/>
<path d="M40.7844 28.2945C40.7058 28.2977 40.628 28.3119 40.5533 28.3368L16.3867 36.9306C16.2186 36.9899 16.074 37.1016 15.974 37.2492C15.8741 37.3967 15.8241 37.5725 15.8314 37.7505C15.8387 37.9286 15.9028 38.0997 16.0145 38.2386C16.1262 38.3775 16.2794 38.477 16.4518 38.5224L16.6536 38.7242V44.2841C15.23 44.6676 14.1666 45.9628 14.1666 47.5003C14.1649 47.6116 14.1855 47.7222 14.2272 47.8254C14.2689 47.9287 14.3309 48.0225 14.4095 48.1014C14.4881 48.1803 14.5817 48.2427 14.6848 48.2848C14.7879 48.3269 14.8983 48.3479 15.0097 48.3466L46.1588 79.4957C53.8192 78.293 60.9648 74.8897 66.7262 69.6998C72.4876 64.51 76.6163 57.7575 78.61 50.2639L65.7877 37.4417C65.7463 37.3245 65.6792 37.2181 65.5913 37.1303C65.5034 37.0424 65.397 36.9753 65.2799 36.9339L41.1132 28.3401C41.0346 28.3128 40.9523 28.2974 40.8691 28.2945C40.8409 28.2931 40.8126 28.2931 40.7844 28.2945Z" fill="#154082"/>
<path d="M40.8676 28.2945C40.8394 28.2931 40.8112 28.2931 40.783 28.2945C40.7043 28.2974 40.6265 28.3114 40.5518 28.3361L16.3852 36.9299C16.2171 36.9892 16.0725 37.1009 15.9725 37.2485C15.8726 37.3961 15.8225 37.5717 15.8298 37.7498C15.8371 37.9279 15.9013 38.0989 16.013 38.2379C16.1246 38.3768 16.2779 38.4763 16.4503 38.5217L16.6521 38.5766V44.283C15.2285 44.6665 14.1651 45.9627 14.1651 47.5002C14.1636 47.6106 14.184 47.7202 14.2251 47.8226C14.2663 47.9251 14.3275 48.0184 14.405 48.0971C14.4825 48.1757 14.5749 48.2382 14.6768 48.2808C14.7787 48.3234 14.888 48.3453 14.9985 48.3453C15.1089 48.3453 15.2182 48.3234 15.3201 48.2808C15.422 48.2382 15.5144 48.1757 15.5919 48.0971C15.6695 48.0184 15.7306 47.9251 15.7718 47.8226C15.8129 47.7202 15.8334 47.6106 15.8318 47.5002C15.8318 46.8873 16.1681 46.3802 16.6521 46.0907V47.3506C16.6505 47.461 16.6709 47.5706 16.7121 47.6731C16.7533 47.7756 16.8144 47.8687 16.892 47.9473C16.9695 48.026 17.0619 48.0884 17.1638 48.1311C17.2657 48.1737 17.375 48.1958 17.4854 48.1958C17.5959 48.1958 17.7052 48.1737 17.8071 48.1311C17.909 48.0884 18.0014 48.026 18.0789 47.9473C18.1564 47.8687 18.2176 47.7756 18.2587 47.6731C18.2999 47.5706 18.3203 47.461 18.3188 47.3506V46.0711C18.8186 46.3566 19.1651 46.8755 19.1651 47.5002C19.1636 47.6106 19.184 47.7202 19.2251 47.8226C19.2663 47.9251 19.3275 48.0184 19.405 48.0971C19.4825 48.1757 19.5749 48.2382 19.6768 48.2808C19.7787 48.3234 19.888 48.3453 19.9985 48.3453C20.1089 48.3453 20.2182 48.3234 20.3201 48.2808C20.422 48.2382 20.5144 48.1757 20.5919 48.0971C20.6695 48.0184 20.7306 47.9251 20.7718 47.8226C20.8129 47.7202 20.8334 47.6106 20.8318 47.5002C20.8318 45.953 19.756 44.6473 18.3188 44.2775V39.0236L27.4985 41.4715V47.5002C27.4983 47.6669 27.5481 47.83 27.6415 47.9681C27.735 48.1062 27.8677 48.2132 28.0225 48.2751C28.0225 48.2751 32.3874 50.0002 40.8318 50.0002C49.2762 50.0002 53.641 48.2751 53.641 48.2751C53.7959 48.2132 53.9286 48.1062 54.022 47.9681C54.1155 47.83 54.1653 47.6669 54.1651 47.5002V41.4715L65.2133 38.5258C65.3857 38.4804 65.5389 38.3809 65.6506 38.2419C65.7623 38.103 65.8265 37.932 65.8337 37.7539C65.841 37.5758 65.791 37.3999 65.6911 37.2524C65.5911 37.1048 65.4465 36.9933 65.2784 36.934L41.1117 28.34C41.0331 28.3129 40.9508 28.2978 40.8676 28.295V28.2945ZM40.8318 30.0132L62.1925 37.6078L40.8318 43.3044L19.4711 37.6078L40.8318 30.0132ZM29.1651 41.9144L40.617 44.9676C40.7577 45.0052 40.9059 45.0052 41.0466 44.9676L52.4985 41.9144V46.8656C51.8659 47.0988 48.3384 48.3335 40.8318 48.3335C33.3252 48.3335 29.7977 47.0988 29.1651 46.8656V41.9144Z" fill="white"/>
</g>
<defs>
<clipPath id="clip0_129_100">
<rect width="80" height="80" fill="white"/>
</clipPath>
</defs>
</svg>
