<svg width="90" height="90" viewBox="0 0 90 90" fill="none" xmlns="http://www.w3.org/2000/svg">
<path d="M67.0781 43.752C67.0781 43.752 67.0781 43.7344 67.0957 43.7344C67.1133 43.6992 67.1133 43.6816 67.1309 43.6465C67.1309 43.6289 67.1309 43.6113 67.1484 43.6113C67.1484 43.5937 67.166 43.5586 67.166 43.541C67.166 43.5234 67.166 43.5059 67.166 43.4883C67.166 43.4707 67.166 43.4355 67.166 43.418C67.166 43.4004 67.166 43.3828 67.166 43.3652C67.166 43.3477 67.166 43.3125 67.166 43.2949C67.166 43.2773 67.166 43.2598 67.166 43.2422C67.166 43.2246 67.1484 43.1895 67.1484 43.1719C67.1484 43.1543 67.1484 43.1367 67.1309 43.1367C67.1309 43.1367 67.1309 43.1367 67.1309 43.1191C67.1133 43.084 67.1133 43.0664 67.0957 43.0312C67.0957 43.0312 67.0957 43.0312 67.0957 43.0137L62.9649 34.5586C62.9649 34.5586 62.9649 34.5586 62.9649 34.541C62.9649 34.541 62.9649 34.541 62.9649 34.5234C62.9649 34.5059 62.9473 34.5059 62.9473 34.4883C62.9297 34.4707 62.9297 34.4531 62.9121 34.4355C62.8945 34.418 62.8945 34.4004 62.877 34.4004C62.8594 34.3828 62.8594 34.3652 62.8418 34.3477C62.8242 34.3301 62.8242 34.3301 62.8066 34.3125C62.7891 34.2949 62.7715 34.2773 62.7539 34.2773C62.7363 34.2598 62.7188 34.2598 62.7188 34.2422C62.7012 34.2246 62.6836 34.2246 62.666 34.207C62.6484 34.1895 62.6309 34.1895 62.6133 34.1719C62.5957 34.1543 62.5781 34.1543 62.5606 34.1367C62.543 34.1367 62.5254 34.1191 62.5078 34.1191C62.4902 34.1191 62.4727 34.1016 62.4551 34.1016C62.4375 34.1016 62.4199 34.084 62.4024 34.084C62.3848 34.084 62.3672 34.0664 62.3496 34.0664C62.332 34.0664 62.3145 34.0664 62.2969 34.0664C62.2793 34.0664 62.2793 34.0664 62.2617 34.0664C62.2442 34.0664 62.2441 34.0664 62.2266 34.0664C62.209 34.0664 62.209 34.0664 62.1914 34.0664L53.7891 33.9961L45.3691 33.9258H45.3516C45.334 33.9258 45.334 33.9258 45.3164 33.9258C45.2988 33.9258 45.2988 33.9258 45.2813 33.9258C45.2637 33.9258 45.2461 33.9258 45.2461 33.9258C45.2109 33.9258 45.1934 33.9434 45.1582 33.9434H45.1406C45.1055 33.9609 45.0703 33.9609 45.0527 33.9785C45.0527 33.9785 45.0527 33.9785 45.0352 33.9785C45 33.9961 44.9648 34.0137 44.9473 34.0313C44.9121 34.0488 44.8945 34.0664 44.8594 34.084C44.8594 34.084 44.8594 34.084 44.8418 34.1016C44.8242 34.1191 44.7891 34.1367 44.7715 34.1719L44.7539 34.1895C44.7363 34.207 44.7188 34.2246 44.7012 34.2422C44.6836 34.2598 44.6836 34.2598 44.6836 34.2773C44.666 34.2949 44.666 34.3125 44.6484 34.3301C44.6484 34.3477 44.6309 34.3477 44.6309 34.3652C44.6309 34.3652 44.6309 34.3652 44.6309 34.3828C44.6309 34.3828 44.6309 34.3828 44.6309 34.4004L40.2539 42.7852C40.2363 42.8203 40.2187 42.8379 40.2187 42.873C40.2187 42.873 40.2187 42.873 40.2187 42.8906C40.2187 42.9082 40.2187 42.9082 40.2012 42.9258C40.2012 42.9434 40.1836 42.9785 40.1836 42.9961C40.1836 43.0137 40.1836 43.0312 40.1836 43.0488C40.1836 43.0664 40.1836 43.1016 40.1836 43.1191C40.1836 43.1367 40.1836 43.1543 40.1836 43.1719C40.1836 43.1895 40.1836 43.2246 40.1836 43.2422C40.1836 43.2598 40.1836 43.2773 40.1836 43.2949C40.1836 43.3125 40.1836 43.3477 40.2012 43.3652C40.2012 43.3828 40.2012 43.4004 40.2012 43.4004C40.2012 43.4355 40.2187 43.4531 40.2363 43.4883V43.5059C40.2539 43.541 40.2715 43.5762 40.2891 43.6113C40.2891 43.6289 40.3066 43.6289 40.3066 43.6465C40.3242 43.6641 40.3242 43.6816 40.3418 43.6992L52.8047 60.6445C52.8223 60.6621 52.8223 60.6797 52.8398 60.6797C52.8398 60.6973 52.8574 60.6973 52.8574 60.7148C52.8574 60.7324 52.875 60.7324 52.875 60.7324L52.8926 60.75C52.9102 60.7676 52.9277 60.7851 52.9453 60.7851C52.9453 60.7851 52.9629 60.7852 52.9629 60.8027L52.9805 60.8203L52.9981 60.8379C53.0156 60.8555 53.0332 60.8555 53.0508 60.873C53.0684 60.873 53.0684 60.8906 53.0859 60.8906C53.1035 60.8906 53.1035 60.9082 53.1211 60.9082C53.1387 60.9082 53.1563 60.9258 53.1738 60.9258H53.1914C53.1914 60.9258 53.1914 60.9258 53.209 60.9258C53.2266 60.9258 53.2441 60.9434 53.2793 60.9434C53.2969 60.9434 53.2969 60.9434 53.3145 60.9609C53.332 60.9609 53.332 60.9609 53.3496 60.9609C53.3672 60.9609 53.3672 60.9609 53.3848 60.9609H53.4023H53.4199C53.4551 60.9609 53.4727 60.9609 53.5078 60.9609C53.5078 60.9609 53.5078 60.9609 53.5254 60.9609C53.5606 60.9609 53.5957 60.9609 53.6133 60.9609C53.6309 60.9609 53.6309 60.9609 53.6309 60.9609C53.6309 60.9609 53.6309 60.9609 53.6484 60.9609C53.666 60.9609 53.666 60.9609 53.6836 60.9609C53.7012 60.9609 53.7012 60.9609 53.7188 60.9609C53.7363 60.9609 53.7363 60.9609 53.7539 60.9434C53.7715 60.9434 53.7891 60.9258 53.8066 60.9258C53.8242 60.9258 53.8242 60.9258 53.8418 60.9082C53.8594 60.9082 53.8594 60.9082 53.877 60.8906C53.8945 60.8906 53.9121 60.873 53.9121 60.873C53.9297 60.873 53.9297 60.8555 53.9473 60.8555C53.9648 60.8379 53.9824 60.8379 54 60.8203L54.0176 60.8027C54.0352 60.8027 54.0352 60.7851 54.0527 60.7851C54.0527 60.7851 54.0527 60.7851 54.0703 60.7851C54.0879 60.7676 54.1055 60.7676 54.1231 60.75L54.1406 60.7324C54.1582 60.7324 54.1582 60.7148 54.1582 60.6973C54.1582 60.6973 54.1758 60.6797 54.1758 60.6621C54.1934 60.6445 54.1934 60.6445 54.2109 60.6269L66.9727 43.9102C66.9902 43.8926 66.9902 43.875 67.0078 43.8574C67.0078 43.8398 67.0254 43.8398 67.0254 43.8223C67.043 43.8223 67.0606 43.7871 67.0781 43.752ZM54.7031 37.9863L56.2324 40.3242L51.0996 40.2715L53.7012 36.457L54.7031 37.9863ZM50.5371 42.0293L56.7598 42.082L53.5254 56.0742L50.5371 42.0293ZM57.8848 39.6387L55.3535 35.7715L60.4863 35.8066L57.8848 39.6387ZM59.3438 40.6934L59.291 40.6758L61.084 38.0215L61.9981 36.6855L64.6172 42.0645L59.3438 40.6934ZM52.0664 35.7539L51.293 36.8965L49.4648 39.5684L48.8848 38.6719L46.9336 35.7012L52.0664 35.7539ZM45.4043 36.5449L45.5273 36.7383L48.041 40.5703L45.6855 41.1328L42.6797 41.8535L45.4043 36.5449ZM42.5215 43.7168L48.7793 42.2051L51.7852 56.3027L42.5215 43.7168ZM58.5176 42.3105L64.7578 43.9277L55.2656 56.3555L58.5176 42.3105Z" fill="#CC9753"/>
<path opacity="0.3" d="M49.9395 8.96484V24.6973L31.623 43.0137C30.5684 44.0684 30.5684 45.7734 31.623 46.8281L49.9395 65.127V75.5859H10.916V8.96484H49.9395Z" fill="#CC9753"/>
<path d="M43.3125 3.07617L39.3574 7.03125H21.1641L17.5957 3.46289L43.3125 3.07617Z" fill="#CC9753"/>
<path d="M54.2637 16.7871C54.2109 16.7871 54.1406 16.7871 54.0879 16.7695C53.8594 16.7168 53.6133 16.6992 53.3848 16.6992C52.8926 16.6992 52.5059 16.3125 52.5059 15.8203C52.5059 15.3281 52.8926 14.9414 53.3848 14.9414C53.7363 14.9414 54.0879 14.9766 54.4219 15.0469C54.8965 15.1348 55.2129 15.6094 55.1074 16.084C55.0371 16.5059 54.6855 16.7871 54.2637 16.7871ZM57.1641 72.9492C56.9355 72.9492 56.707 72.8613 56.5488 72.6855C56.1973 72.334 56.1973 71.7891 56.5488 71.4375L57.7793 70.207C58.1309 69.8555 58.6758 69.8555 59.0273 70.207C59.3789 70.5586 59.3789 71.1035 59.0273 71.4551L57.7969 72.6855C57.6035 72.8789 57.375 72.9492 57.1641 72.9492ZM60.8555 69.2578C60.627 69.2578 60.3984 69.1699 60.2402 68.9941C59.8887 68.6426 59.8887 68.0977 60.2402 67.7461L61.4707 66.5156C61.8223 66.1641 62.3672 66.1641 62.7187 66.5156C63.0703 66.8672 63.0703 67.4121 62.7187 67.7637L61.4883 68.9941C61.3125 69.1699 61.084 69.2578 60.8555 69.2578ZM64.5469 65.5664C64.3184 65.5664 64.0898 65.4785 63.9316 65.3027C63.5801 64.9512 63.5801 64.4062 63.9316 64.0547L65.1621 62.8242C65.5137 62.4727 66.0586 62.4727 66.4102 62.8242C66.7617 63.1758 66.7617 63.7207 66.4102 64.0723L65.1797 65.3027C65.0039 65.4785 64.7754 65.5664 64.5469 65.5664ZM68.2559 61.8574C68.0273 61.8574 67.7988 61.7695 67.6406 61.5938C67.2891 61.2422 67.2891 60.6973 67.6406 60.3457L68.8711 59.1152C69.2227 58.7637 69.7676 58.7637 70.1191 59.1152C70.4707 59.4668 70.4707 60.0117 70.1191 60.3633L68.8887 61.5938C68.6953 61.7871 68.4668 61.8574 68.2559 61.8574ZM71.9473 58.166C71.7187 58.166 71.4902 58.0781 71.332 57.9023C70.9805 57.5508 70.9805 57.0059 71.332 56.6543L72.5625 55.4238C72.9141 55.0723 73.459 55.0723 73.8105 55.4238C74.1621 55.7754 74.1621 56.3203 73.8105 56.6719L72.5801 57.9023C72.3867 58.0781 72.1758 58.166 71.9473 58.166ZM75.6387 54.4746C75.4102 54.4746 75.1816 54.3867 75.0234 54.2109C74.6719 53.8594 74.6719 53.3144 75.0234 52.9629L76.2539 51.7324C76.6055 51.3809 77.1504 51.3809 77.5019 51.7324C77.8535 52.084 77.8535 52.6289 77.5019 52.9805L76.2715 54.2109C76.0957 54.3867 75.8672 54.4746 75.6387 54.4746ZM79.3477 50.7832C79.1191 50.7832 78.8906 50.6953 78.7324 50.5195C78.3809 50.168 78.3809 49.623 78.7324 49.2715L79.9629 48.041C80.3144 47.6894 80.8594 47.6894 81.2109 48.041C81.5625 48.3926 81.5625 48.9375 81.2109 49.2891L79.9805 50.5195C79.7871 50.6953 79.5586 50.7832 79.3477 50.7832ZM82.4062 46.6523C82.3535 46.6523 82.3008 46.6523 82.2305 46.6348C81.7559 46.5469 81.4394 46.0723 81.5449 45.5977C81.5977 45.3691 81.6152 45.1406 81.6152 44.9121C81.6152 44.6836 81.5977 44.4375 81.5449 44.209C81.457 43.7344 81.7559 43.2773 82.2305 43.1719C82.7051 43.084 83.1621 43.3828 83.2676 43.8574C83.3379 44.1914 83.373 44.543 83.373 44.8945C83.373 45.2461 83.3379 45.5801 83.2676 45.9316C83.1797 46.3711 82.8105 46.6523 82.4062 46.6523ZM80.5605 42.0293C80.332 42.0293 80.1035 41.9414 79.9453 41.7656L78.7148 40.5352C78.3633 40.1836 78.3633 39.6387 78.7148 39.2871C79.0664 38.9355 79.6113 38.9355 79.9629 39.2871L81.1934 40.5176C81.5449 40.8691 81.5449 41.4141 81.1934 41.7656C81.0176 41.9414 80.7891 42.0293 80.5605 42.0293ZM76.8691 38.3379C76.6406 38.3379 76.4121 38.25 76.2539 38.0742L75.0234 36.8438C74.6719 36.4922 74.6719 35.9473 75.0234 35.5957C75.375 35.2441 75.9199 35.2441 76.2715 35.5957L77.5019 36.8262C77.8535 37.1777 77.8535 37.7227 77.5019 38.0742C77.3262 38.25 77.0977 38.3379 76.8691 38.3379ZM73.1777 34.6465C72.9492 34.6465 72.7207 34.5586 72.5625 34.3828L71.332 33.1523C70.9805 32.8008 70.9805 32.2559 71.332 31.9043C71.6836 31.5527 72.2285 31.5527 72.5801 31.9043L73.8105 33.1348C74.1621 33.4863 74.1621 34.0313 73.8105 34.3828C73.6172 34.5586 73.4062 34.6465 73.1777 34.6465ZM69.4687 30.9375C69.2402 30.9375 69.0117 30.8496 68.8535 30.6738L67.623 29.4434C67.2715 29.0918 67.2715 28.5469 67.623 28.1953C67.9746 27.8437 68.5195 27.8437 68.8711 28.1953L70.1016 29.4258C70.4531 29.7773 70.4531 30.3223 70.1016 30.6738C69.9258 30.8672 69.6973 30.9375 69.4687 30.9375ZM65.7773 27.2461C65.5488 27.2461 65.3203 27.1582 65.1621 26.9824L63.9316 25.752C63.5801 25.4004 63.5801 24.8555 63.9316 24.5039C64.2832 24.1523 64.8281 24.1523 65.1797 24.5039L66.4102 25.7344C66.7617 26.0859 66.7617 26.6309 66.4102 26.9824C66.2344 27.1582 66.0059 27.2461 65.7773 27.2461ZM62.0859 23.5547C61.8574 23.5547 61.6289 23.4668 61.4707 23.291L60.2402 22.0605C59.8887 21.709 59.8887 21.1641 60.2402 20.8125C60.5918 20.4609 61.1367 20.4609 61.4883 20.8125L62.7187 22.043C63.0703 22.3945 63.0703 22.9395 62.7187 23.291C62.5254 23.4668 62.3145 23.5547 62.0859 23.5547ZM58.377 19.8457C58.1484 19.8457 57.9199 19.7578 57.7617 19.582L56.5312 18.3516C56.1797 18 56.1797 17.4551 56.5312 17.1035C56.8828 16.752 57.4277 16.752 57.7793 17.1035L59.0098 18.334C59.3613 18.6855 59.3613 19.2305 59.0098 19.582C58.834 19.7754 58.6055 19.8457 58.377 19.8457ZM53.4023 74.8828C52.9102 74.8828 52.5234 74.4961 52.5234 74.0039C52.5234 73.5117 52.9102 73.125 53.4023 73.125C53.6309 73.125 53.8769 73.1074 54.1055 73.0547C54.5801 72.9668 55.0371 73.2656 55.1426 73.7402C55.2305 74.2148 54.9316 74.6719 54.457 74.7773C54.0879 74.8477 53.7363 74.8828 53.4023 74.8828Z" fill="#CC9753"/>
<path d="M76.4121 41.7656L56.5488 21.9023C55.916 21.2695 55.1426 20.8477 54.2812 20.6895V6.64453C54.2812 4.18359 52.2773 2.19727 49.834 2.19727H11.0918C8.63086 2.19727 6.64453 4.20117 6.64453 6.64453V83.3379C6.64453 85.7988 8.64844 87.7852 11.0918 87.7852H49.8164C52.2773 87.7852 54.2637 85.7812 54.2637 83.3379V69.1348C55.125 68.959 55.8984 68.5547 56.5312 67.9219L76.3945 48.0586C78.1347 46.3184 78.1347 43.5059 76.4121 41.7656ZM52.5234 83.3555C52.5234 84.8496 51.3105 86.0449 49.834 86.0449H11.0918C9.59766 86.0449 8.40234 84.832 8.40234 83.3555V6.64453C8.40234 5.15039 9.61523 3.95508 11.0918 3.95508H49.8164C51.3105 3.95508 52.5058 5.16797 52.5058 6.64453V20.6719C52.418 20.6895 52.3125 20.707 52.2246 20.7422C52.207 20.7422 52.1894 20.7598 52.1543 20.7598C51.9609 20.8125 51.7851 20.8828 51.6094 20.9531C51.5918 20.9531 51.5742 20.9707 51.5566 20.9707C51.3808 21.0586 51.2051 21.1465 51.0469 21.252C51.0293 21.2695 51.0117 21.2695 50.9941 21.2871C50.8359 21.3926 50.6777 21.5156 50.5195 21.6387C50.5019 21.6562 50.4844 21.6738 50.4668 21.6914C50.3965 21.7617 50.3262 21.8145 50.2558 21.9023L49.9394 22.2188L44.1211 28.0195H25.1191C24.8906 28.0195 24.6621 28.1074 24.5039 28.2832L19.7402 33.0469H17.4023C16.9102 33.0469 16.5234 33.4336 16.5234 33.9258C16.5234 34.418 16.9102 34.8047 17.4023 34.8047H20.0918C20.3203 34.8047 20.5488 34.7168 20.707 34.541L25.4707 29.7773H42.3457L39.8672 32.2559H28.6523C28.1601 32.2559 27.7734 32.6426 27.7734 33.1348C27.7734 33.627 28.1601 34.0137 28.6523 34.0137H38.1269L30.375 41.7656C29.7949 42.3457 29.4082 43.0488 29.2148 43.7871C29.1797 43.8926 29.1621 44.0156 29.1445 44.1211H16.6113C16.1191 44.1211 15.7324 44.5078 15.7324 45C15.7324 45.4922 16.1191 45.8789 16.6113 45.8789H29.1797C29.3555 46.6875 29.7598 47.4434 30.375 48.0586L32.3262 50.0098H25.8398C25.6113 50.0098 25.3828 50.0977 25.2246 50.2734L21.1816 54.3164H16.6113C16.1191 54.3164 15.7324 54.7031 15.7324 55.1953C15.7324 55.6875 16.1191 56.0742 16.6113 56.0742H21.5332C21.7617 56.0742 21.9902 55.9863 22.1484 55.8105L26.1914 51.7676H34.084L43.8047 61.4883H32.8711L29.8125 58.4297C29.6543 58.2715 29.4258 58.166 29.1973 58.166H25.5234C25.0312 58.166 24.6445 58.5527 24.6445 59.0449C24.6445 59.5371 25.0312 59.9238 25.5234 59.9238H28.8281L31.8867 62.9824C32.0449 63.1406 32.2734 63.2461 32.5019 63.2461H45.5625L47.6367 65.3203L49.9219 67.6055L50.2383 67.9219C50.3086 67.9922 50.3789 68.0625 50.4492 68.1152C50.4668 68.1328 50.4844 68.1504 50.5019 68.168C50.6601 68.291 50.8183 68.4141 50.9765 68.5195C50.9941 68.5371 51.0117 68.5371 51.0293 68.5547C51.1875 68.6602 51.3633 68.748 51.539 68.8359C51.5566 68.8535 51.5742 68.8535 51.6094 68.8711C51.6973 68.9062 51.7851 68.9414 51.873 68.9766C51.9609 69.0117 52.0488 69.0293 52.1543 69.0645C52.1719 69.0645 52.207 69.082 52.2246 69.082C52.3125 69.0996 52.4004 69.1348 52.4883 69.1523C52.4883 69.1523 52.4883 69.1523 52.5058 69.1523V83.3555H52.5234ZM75.164 46.8105L55.3008 66.6738C54.791 67.1836 54.1055 67.4648 53.4023 67.4648C52.6816 67.4648 51.9961 67.1836 51.5039 66.6738L49.957 65.1094L35.0683 50.2734L34.5586 49.7637L31.623 46.8281C31.5 46.7051 31.3945 46.5645 31.2891 46.4238C30.5859 45.3691 30.6914 43.9453 31.623 43.0137L49.9394 24.7148L51.4863 23.1504C51.7148 22.9219 51.9785 22.7461 52.2773 22.6055C52.6289 22.4473 52.998 22.3594 53.4023 22.3594C54.123 22.3594 54.791 22.6406 55.3008 23.1504L75.164 43.0137C76.2187 44.0508 76.2187 45.7734 75.164 46.8105Z" fill="#CC9753"/>
<path d="M16.6113 36.2285C17.8831 36.2285 18.9141 35.1976 18.9141 33.9258C18.9141 32.654 17.8831 31.623 16.6113 31.623C15.3396 31.623 14.3086 32.654 14.3086 33.9258C14.3086 35.1976 15.3396 36.2285 16.6113 36.2285Z" fill="#CC9753"/>
<path d="M27.2461 35.4551C28.5179 35.4551 29.5488 34.4241 29.5488 33.1523C29.5488 31.8806 28.5179 30.8496 27.2461 30.8496C25.9743 30.8496 24.9434 31.8806 24.9434 33.1523C24.9434 34.4241 25.9743 35.4551 27.2461 35.4551Z" fill="#CC9753"/>
<path d="M16.6113 47.2149C17.8831 47.2149 18.9141 46.1839 18.9141 44.9121C18.9141 43.6403 17.8831 42.6094 16.6113 42.6094C15.3396 42.6094 14.3086 43.6403 14.3086 44.9121C14.3086 46.1839 15.3396 47.2149 16.6113 47.2149Z" fill="#CC9753"/>
<path d="M16.6113 57.252C17.8831 57.252 18.9141 56.221 18.9141 54.9492C18.9141 53.6775 17.8831 52.6465 16.6113 52.6465C15.3396 52.6465 14.3086 53.6775 14.3086 54.9492C14.3086 56.221 15.3396 57.252 16.6113 57.252Z" fill="#CC9753"/>
<path d="M25.5234 61.4707C26.7952 61.4707 27.8262 60.4397 27.8262 59.168C27.8262 57.8962 26.7952 56.8652 25.5234 56.8652C24.2517 56.8652 23.2207 57.8962 23.2207 59.168C23.2207 60.4397 24.2517 61.4707 25.5234 61.4707Z" fill="#CC9753"/>
<path d="M30.4629 83.7598C32.2104 83.7598 33.627 82.3432 33.627 80.5957C33.627 78.8482 32.2104 77.4316 30.4629 77.4316C28.7154 77.4316 27.2988 78.8482 27.2988 80.5957C27.2988 82.3432 28.7154 83.7598 30.4629 83.7598Z" fill="#CC9753"/>
</svg>
