<svg width="80" height="80" viewBox="0 0 80 80" fill="none" xmlns="http://www.w3.org/2000/svg">
<path d="M76.5716 40.0001C76.5716 41.143 76.5144 42.2287 76.4001 43.3144C74.8573 60.2287 61.8287 73.8858 45.143 76.1716C43.4859 76.4001 41.7716 76.5144 40.0001 76.5144C19.8287 76.5144 3.42871 60.1144 3.42871 39.943C3.42871 19.8287 19.8287 3.42871 40.0001 3.42871C60.2287 3.42871 76.5716 19.8287 76.5716 40.0001Z" fill="#E45647"/>
<path opacity="0.3" d="M58.9143 25.8283L54.6286 22.0569C54.4 21.8283 54.0571 21.8854 53.8285 22.114L51.9428 24.2283L51.8857 24.2854C51.8857 24.2854 51.8857 24.3426 51.8285 24.3426C51.8285 24.3997 51.7714 24.4569 51.7714 24.4569C51.7143 24.6283 51.7714 24.7997 51.9428 24.9711C51.9428 24.9711 51.9428 25.0283 52 25.0283L53.2 26.2283L52.4571 27.0854L43.2 17.8283C43.0285 17.6569 42.8571 17.5426 42.6857 17.4283C42.5714 17.3711 42.4571 17.314 42.2857 17.2569C42.0571 17.1997 41.8286 17.1426 41.6 17.1426H38.5143C37.2571 17.1426 36.2285 18.1711 36.2285 19.4283C36.2285 19.5426 36.2285 19.5997 36.2285 19.714C36.2285 19.8854 36.2857 19.9997 36.2857 20.114C36.3428 20.2854 36.4 20.3997 36.4571 20.514C36.4571 20.5712 36.5143 20.6283 36.5714 20.6854C36.6857 20.7997 36.7428 20.9712 36.9143 21.0854L38.8571 23.0854C38.8 23.0854 38.7428 23.0854 38.6857 23.0854H38.6285C38.5143 23.0854 38.4 23.0854 38.2857 23.0854C38 23.0854 37.7714 23.1426 37.4857 23.1426C37.3143 23.1426 37.2 23.1997 37.0285 23.1997C36.9714 23.1997 36.8571 23.1997 36.8 23.2569C36.5714 23.314 36.3428 23.314 36.1714 23.3712C36.1143 23.3712 36.0571 23.3711 36 23.4283C35.7714 23.4854 35.5428 23.5426 35.3143 23.5997C35.0857 23.6569 34.9143 23.714 34.6857 23.7711C34.5143 23.8283 34.2857 23.8854 34.1143 23.9426C33.7714 24.0569 33.4285 24.1711 33.0857 24.2854C32.9143 24.3426 32.6857 24.4569 32.5143 24.514C32.3428 24.5711 32.1714 24.6854 32 24.7426C31.8285 24.7997 31.6 24.914 31.4285 25.0283C31.2571 25.0854 31.0857 25.1997 30.9143 25.2569C30.5714 25.4283 30.2285 25.5997 29.8857 25.8283L26.1714 22.114C25.9428 21.8854 25.6 21.8283 25.3714 22.0569L21.0857 25.8283C20.8571 26.0569 20.8 26.3997 21.0285 26.6283L22.9143 28.7426L24.5143 30.3426C24.3428 30.5711 24.1714 30.7426 24 30.9711C23.8285 31.1997 23.6571 31.4283 23.5428 31.6569C23.3143 31.9426 23.1428 32.2283 22.9714 32.5711C22.8571 32.7426 22.8 32.914 22.6857 33.0854C22.5714 33.314 22.4 33.5426 22.2857 33.8283C22.1143 34.114 22 34.3997 21.8857 34.6854C21.7714 34.9711 21.6 35.2569 21.4857 35.5997C21.4285 35.7711 21.3143 35.9997 21.2571 36.1711C21.2 36.3426 21.1428 36.4569 21.0857 36.6283C21.0285 36.8569 20.9714 37.0283 20.9143 37.2569C20.8571 37.4854 20.8 37.714 20.7428 37.8854C20.6857 38.114 20.6285 38.3426 20.5714 38.514C20.4571 39.0283 20.3428 39.5426 20.2857 40.0569C20.2857 40.2283 20.2285 40.3997 20.2285 40.5711C20.1714 41.1426 20.1143 41.6569 20.1143 42.2283C20.1143 42.3426 20.1143 42.4569 20.1143 42.514C20.1143 42.6283 20.1143 42.7426 20.1143 42.7997C20.1143 43.314 20.1143 43.8283 20.1714 44.3426C20.2285 44.6854 20.2285 45.0283 20.2857 45.3711C20.3428 45.9997 20.4571 46.6283 20.6285 47.2569C20.6285 47.314 20.6857 47.4283 20.6857 47.4854C20.7428 47.714 20.8 47.8854 20.8571 48.114C20.9143 48.2283 20.9143 48.3426 20.9714 48.514C21.0285 48.7997 21.1428 49.0283 21.2 49.2569C21.2571 49.4854 21.3714 49.714 21.4285 49.9426C21.6 50.514 21.8857 51.0283 22.1143 51.5426C22.2285 51.7711 22.3428 51.9997 22.4571 52.1712C22.5714 52.3997 22.6857 52.6283 22.8 52.7997C22.8571 52.914 22.9714 53.0854 23.0285 53.1997C23.1428 53.4283 23.2571 53.5997 23.4285 53.8283C23.4857 53.9426 23.6 54.0569 23.6571 54.1712C23.7714 54.2854 23.8285 54.4569 23.9428 54.5711C24.0571 54.6854 24.1143 54.8569 24.2285 54.9711C24.3428 55.0854 24.4571 55.2569 24.5714 55.3711C24.6857 55.4854 24.8 55.6569 24.9143 55.7711C25.0285 55.8854 25.1428 56.0569 25.2571 56.1712C25.3714 56.2854 25.4857 56.3997 25.6 56.514C25.7143 56.6283 25.8285 56.7426 25.9428 56.8569C26.0571 56.9711 26.1714 57.0854 26.2857 57.1997C26.4 57.314 26.5714 57.4854 26.6857 57.5997L45.1428 76.2283C61.8286 73.8854 74.9143 60.2854 76.4 43.3711L58.9143 25.8283Z" fill="black"/>
<path d="M43.2 17.8283C43.0285 17.6569 42.8571 17.5426 42.6285 17.4283C42.5142 17.3711 42.4 17.314 42.2285 17.2569C42 17.1997 41.7714 17.1426 41.5428 17.1426H38.4571C37.2 17.1426 36.1714 18.1711 36.1714 19.4283C36.1714 19.5426 36.1714 19.5997 36.1714 19.714C36.1714 19.8854 36.2285 19.9997 36.2285 20.114C36.2857 20.2854 36.3428 20.3997 36.4 20.514C36.4 20.5711 36.4571 20.6283 36.5142 20.6854C36.6285 20.7997 36.6857 20.9711 36.8571 21.0854C37.2571 21.4854 37.8285 21.714 38.4571 21.714H39.4285V24.1711H40.5714V21.714H41.5428C42.8 21.714 43.8285 20.6854 43.8285 19.4283C43.8285 18.7997 43.6 18.2283 43.2 17.8283ZM41.5428 20.5711H38.4571C37.8285 20.5711 37.3142 20.0569 37.3142 19.4283C37.3142 18.7997 37.8285 18.2854 38.4571 18.2854H41.5428C42.1714 18.2854 42.6857 18.7997 42.6857 19.4283C42.6857 20.0569 42.1714 20.5711 41.5428 20.5711Z" fill="#263A46"/>
<path d="M53.8286 22.1143L51.9429 24.2286C51.7143 24.4571 51.7714 24.8 52 25.0286L56.2857 28.8C56.5143 29.0286 56.8572 28.9714 57.0857 28.7428L58.9714 26.6286C59.2 26.4 59.1429 26.0571 58.9143 25.8286L54.6286 22.0571C54.4 21.8286 54.0572 21.8857 53.8286 22.1143Z" fill="#2A414E"/>
<path d="M53.321 26.1733L51.0498 28.7417L52.7621 30.2558L55.0332 27.6874L53.321 26.1733Z" fill="#F3F3F3"/>
<path d="M26.1714 22.1143L28.0571 24.2286C28.2857 24.4571 28.2286 24.8 28 25.0286L23.7143 28.8C23.4857 29.0286 23.1428 28.9714 22.9143 28.7428L21.0286 26.6286C20.8 26.4 20.8571 26.0571 21.0857 25.8286L25.3714 22.0571C25.6 21.8286 25.9429 21.8857 26.1714 22.1143Z" fill="#2A414E"/>
<path d="M26.7091 26.19L24.9968 27.7041L27.268 30.2725L28.9803 28.7584L26.7091 26.19Z" fill="#F3F3F3"/>
<path d="M40 62.8569C51.0141 62.8569 59.9429 53.9282 59.9429 42.914C59.9429 31.8999 51.0141 22.9712 40 22.9712C28.9859 22.9712 20.0571 31.8999 20.0571 42.914C20.0571 53.9282 28.9859 62.8569 40 62.8569Z" fill="#314D5C"/>
<path d="M40.0001 59.5428C49.1839 59.5428 56.6287 52.0979 56.6287 42.9142C56.6287 33.7305 49.1839 26.2856 40.0001 26.2856C30.8164 26.2856 23.3716 33.7305 23.3716 42.9142C23.3716 52.0979 30.8164 59.5428 40.0001 59.5428Z" fill="#F7F8F9"/>
<path d="M39.9999 32.2285C39.9999 32.2285 37.3142 41.4285 37.3142 42.9142C37.3142 44.3999 38.5142 45.5999 39.9999 45.5999C41.4856 45.5999 42.6856 44.3999 42.6856 42.9142C42.6856 41.4857 39.9999 32.2285 39.9999 32.2285Z" fill="#E45647"/>
<path d="M40.8571 28.3999H39.0857V30.7999H40.8571V28.3999Z" fill="#939393"/>
<path d="M41.2001 55.1426H39.4287V57.5426H41.2001V55.1426Z" fill="#939393"/>
<path d="M49.7214 31.926L48.0244 33.623L49.277 34.8756L50.974 33.1785L49.7214 31.926Z" fill="#939393"/>
<path d="M31.0166 51.0158L29.3196 52.7129L30.5722 53.9655L32.2692 52.2684L31.0166 51.0158Z" fill="#939393"/>
<path d="M54.7428 41.8857H52.3428V43.6572H54.7428V41.8857Z" fill="#939393"/>
<path d="M28.0001 42.1714H25.6001V43.9428H28.0001V42.1714Z" fill="#939393"/>
<path d="M49.4692 50.8195L48.2168 52.0723L49.9141 53.7691L51.1665 52.5163L49.4692 50.8195Z" fill="#939393"/>
<path d="M30.38 32.118L29.1274 33.3706L30.8245 35.0676L32.0771 33.815L30.38 32.118Z" fill="#939393"/>
<path d="M39.9999 44.4001C40.8204 44.4001 41.4856 43.735 41.4856 42.9144C41.4856 42.0939 40.8204 41.4287 39.9999 41.4287C39.1793 41.4287 38.5142 42.0939 38.5142 42.9144C38.5142 43.735 39.1793 44.4001 39.9999 44.4001Z" fill="#F7F8F9"/>
</svg>
