<svg width="80" height="80" viewBox="0 0 80 80" fill="none" xmlns="http://www.w3.org/2000/svg">
<path d="M40 0C62.0867 0 80 17.9133 80 40C80 62.0867 62.0867 80 40 80C17.9133 80 0 62.0867 0 40C0 17.9133 17.9133 0 40 0Z" fill="#CCFFCC"/>
<path d="M69.6364 42.5322C69.9647 42.7669 70.2928 43.0016 70.5275 43.2828L70.715 43.4703L70.8086 43.658C71.0433 44.1738 71.465 45.1585 71.465 45.6741V59.7889C71.465 60.7271 71.1367 61.6181 70.4803 62.2746C69.7769 63.0244 68.8394 63.3997 67.8541 63.3997C66.4942 63.3997 65.1346 63.3997 63.7747 63.4467V68.886H14.6305V62.0399L8.6283 40.0938C8.48783 39.5398 8.48783 38.9596 8.6283 38.4056H8.67533C8.72236 38.0774 8.86236 37.843 9.00361 37.5617H9.05065C9.47236 36.9053 10.0352 36.4363 10.7386 36.2019H10.7856L12.1925 35.8266V13.318C12.1925 12.0988 13.1771 11.1138 14.3494 11.1138H63.7747C64.9939 11.1138 65.9785 12.0988 65.9785 13.318V41.6411H67.2447C68.136 41.6411 68.98 41.9699 69.6364 42.5322Z" fill="#4E5A62"/>
<path d="M52.5204 53.6461C52.5204 53.6931 52.5674 53.7865 52.5674 53.8801C52.5674 56.3186 46.471 58.2884 38.9685 58.2884C31.466 58.2884 25.416 56.3187 25.416 53.8801V53.6461V53.4114C25.416 50.9728 31.466 48.9565 38.9685 48.9565C46.471 48.9565 52.5674 50.9726 52.5674 53.4114C52.5674 53.4584 52.5204 53.5519 52.5204 53.6461Z" fill="#757575"/>
<path d="M52.5203 53.6461C52.5203 53.6931 52.5673 53.7865 52.5673 53.8801C52.5673 56.3186 46.4709 58.2884 38.9684 58.2884H37.9839V49.0036C38.3122 49.0036 38.6403 48.9565 38.9684 48.9565C46.4711 48.9565 52.5673 50.9726 52.5673 53.4114C52.5673 53.4584 52.5203 53.5519 52.5203 53.6461Z" fill="#696969"/>
<path d="M37.9834 49.0036C38.3117 49.0036 38.6398 48.9565 38.9679 48.9565C46.2365 48.9565 52.1453 50.8322 52.5198 53.1773C52.1453 55.4747 46.2364 57.3503 38.9679 57.3503H37.9834V49.0036Z" fill="#757575"/>
<path d="M38.968 48.4878C46.4529 48.4878 52.5199 50.4614 52.5199 52.8955C52.5199 55.3301 46.4529 57.3039 38.968 57.3039C31.4832 57.3039 25.4155 55.3301 25.4155 52.8955C25.4155 50.4614 31.4833 48.4878 38.968 48.4878Z" fill="#8D8D8D"/>
<path d="M38.9679 48.4878C46.4706 48.4878 52.5668 50.457 52.5668 52.8955C52.5668 55.3811 46.4704 57.3503 38.9679 57.3503H37.9834V48.4878H38.9679Z" fill="#7F7F7F"/>
<path d="M34.0444 40H43.8921V51.8169H34.0444V40Z" fill="#CCCCCC"/>
<path d="M43.8915 46.3306V51.817H37.9834V46.3306H43.8915Z" fill="#B8B8B8"/>
<path d="M34.7944 40.7505H43.3294V51.0667H34.7944V40.7505Z" fill="#B8B8B8"/>
<path d="M43.3293 46.3306V51.067H37.9834V46.3306H43.3293Z" fill="#A6A6A6"/>
<path d="M14.3496 12.4268H63.7749C64.2907 12.4268 64.666 12.8021 64.666 13.3179V45.4393C64.666 45.9552 64.2907 46.3304 63.7749 46.3304H14.3496C13.8808 46.3304 13.4585 45.9552 13.4585 45.4393V13.3179C13.4585 12.8021 13.8808 12.4268 14.3496 12.4268Z" fill="#A9ABAE"/>
<path d="M16.3193 13.7397H62.6498C63.0715 13.7397 63.3532 14.068 63.3532 14.4429V43.5637C63.3532 43.986 63.0715 44.2671 62.6498 44.2671H15.4748C15.0996 44.2671 14.8184 43.986 14.8184 43.5637V15.2872C14.8184 14.4429 15.4748 13.7397 16.3193 13.7397Z" fill="#669999"/>
<path d="M39.0623 44.4551C39.4503 44.4551 39.7658 44.7699 39.7658 45.1585C39.7658 45.5471 39.4503 45.862 39.0623 45.862C38.6731 45.862 38.3589 45.5471 38.3589 45.1585C38.3589 44.7699 38.6731 44.4551 39.0623 44.4551Z" fill="#CCCCCC"/>
<path d="M39.0626 44.6895C39.1553 44.6896 39.2459 44.7172 39.3229 44.7688C39.3999 44.8203 39.4599 44.8936 39.4953 44.9793C39.5306 45.0649 39.5398 45.1591 39.5217 45.25C39.5035 45.3409 39.4588 45.4244 39.3932 45.4899C39.3277 45.5554 39.2441 45.6 39.1532 45.618C39.0623 45.636 38.9681 45.6267 38.8825 45.5912C38.7969 45.5557 38.7237 45.4956 38.6722 45.4186C38.6207 45.3415 38.5933 45.2509 38.5933 45.1582C38.5933 45.0966 38.6054 45.0356 38.629 44.9787C38.6526 44.9218 38.6872 44.8701 38.7308 44.8265C38.7744 44.783 38.8261 44.7485 38.8831 44.725C38.94 44.7014 39.001 44.6894 39.0626 44.6895Z" fill="#B3B3B3"/>
<path d="M17.7253 14.6777H61.2426C61.5709 14.6777 61.899 14.9588 61.899 15.3341V42.6726C61.899 43.0477 61.5707 43.3296 61.2426 43.3296H16.9284C16.6001 43.3296 16.272 43.0477 16.272 42.6726V16.1315C16.272 15.3341 16.9284 14.6777 17.7253 14.6777Z" fill="#336666"/>
<path d="M30.8092 51.1606C31.4656 51.1606 31.9808 51.6766 31.9808 52.38C31.9808 53.0363 31.4656 53.5522 30.8092 53.5522C30.1058 53.5522 29.5894 53.0363 29.5894 52.38C29.5894 51.6766 30.1058 51.1606 30.8092 51.1606Z" fill="#657280"/>
<path d="M30.8094 51.6763C31.1841 51.6763 31.4658 52.0044 31.4658 52.3797C31.4658 52.7549 31.1841 53.036 30.8094 53.036C30.4342 53.036 30.106 52.7549 30.106 52.3797C30.106 52.0042 30.4341 51.6763 30.8094 51.6763Z" fill="#5E6976"/>
<path d="M11.2074 37.4208L27.6672 32.7785C28.6517 32.5438 29.6835 33.1068 29.9645 34.1383L36.8108 59.1796C37.0925 60.1641 36.5297 61.2428 35.5452 61.5239L19.0858 66.1663C18.0541 66.448 17.0225 65.838 16.7408 64.8535L9.89392 39.7655C9.61283 38.7807 10.2222 37.7022 11.2074 37.4208Z" fill="#B88A2E"/>
<path d="M11.2074 37.4208L27.6672 32.7785C27.9013 32.7314 28.136 32.7314 28.3706 32.7314C28.8388 32.9661 29.2611 33.3882 29.4024 33.9508L36.2956 59.0391C36.5297 60.0236 35.9674 61.1024 34.9822 61.3835L18.5224 65.9788C18.2883 66.073 18.0542 66.073 17.8189 66.073C17.3038 65.8383 16.9285 65.4166 16.7408 64.8536L9.89392 39.7655C9.61283 38.7807 10.2222 37.7022 11.2074 37.4208Z" fill="#CC9933"/>
<path d="M16.4126 35.9672L22.4618 34.2788C22.5089 34.5602 22.6959 36.061 22.4148 36.1547L17.3971 37.5613C17.1154 37.6554 16.506 36.2488 16.4126 35.9672Z" fill="#B88A2E"/>
<path d="M10.9727 39.39L27.8542 33.5752L36.4355 59.1793L19.5539 64.9938L10.9727 39.39Z" fill="#CFCFCF"/>
<path d="M12.4268 37.8894L29.8713 34.3257L35.17 60.8202L17.6791 64.3846L12.4268 37.8894Z" fill="#E6E6E6"/>
<path d="M16.5535 34.56L17.538 34.2786V34.1849L17.3976 33.6691C17.304 33.388 17.491 33.1064 17.7727 33.0127L19.789 32.4502H19.836C19.9766 32.4969 20.0707 32.6375 20.1177 32.7783L20.2577 33.2941C20.2577 33.3408 20.3048 33.4818 20.3048 33.5285C20.7271 33.388 21.1494 33.2941 21.6176 33.1533C21.7588 33.2004 21.8993 33.341 21.8993 33.4819L22.0869 33.9977C22.134 34.2788 22.321 35.8733 22.0399 35.92L17.1629 37.3269C16.8348 36.9986 16.413 35.9671 16.3196 35.7327L16.1783 35.2166C16.1313 34.9354 16.2724 34.6539 16.5535 34.56Z" fill="#B8B8B8"/>
<path d="M17.4442 34.326L17.5376 34.2789V34.1852L17.3972 33.6694C17.3036 33.435 17.4442 33.2007 17.6318 33.0597L19.6951 32.4971H19.7422C19.8822 32.5438 19.9762 32.6847 20.0232 32.8254L20.1639 33.3411C20.1639 33.3882 20.2109 33.5288 20.2109 33.5755C20.6326 33.435 21.0548 33.3411 21.5236 33.2007C21.6642 33.2474 21.7582 33.3883 21.8054 33.5288L21.9454 34.0446C22.0395 34.326 22.1807 35.733 21.9925 35.9674L17.1623 37.3272C16.8342 36.9989 16.4125 35.9674 16.319 35.733L16.1778 35.2169C16.1307 34.9825 16.2248 34.7482 16.4589 34.6072L17.4442 34.326Z" fill="#CCCCCC"/>
<path d="M18.664 33.0597C18.8045 33.013 18.9921 33.1068 19.0391 33.2944C19.0862 33.4821 18.9921 33.6694 18.8045 33.7164C18.664 33.7632 18.4763 33.6694 18.4293 33.4821C18.3827 33.2943 18.4763 33.1068 18.664 33.0597Z" fill="#959595"/>
<path d="M18.8506 33.1064C18.9449 33.1064 19.0389 33.2004 19.0389 33.2941C19.0859 33.4818 18.9919 33.6691 18.8042 33.7161H18.7108C18.6166 33.6691 18.5695 33.6222 18.5225 33.5285C18.4761 33.3408 18.5695 33.1533 18.7572 33.1064H18.8506Z" fill="#A6A6A6"/>
<path d="M42.8607 61.4771C42.0636 61.0554 41.5479 60.3049 41.5479 59.3674V45.299C41.5479 43.9863 42.5796 42.9546 43.8924 42.9546H67.2455C67.9019 42.9546 68.4649 43.1893 68.8864 43.6108C68.5582 43.4704 68.2302 43.3762 67.8547 43.3762H44.4552C43.1894 43.3762 42.1572 44.4079 42.1572 45.6741V59.789C42.1572 60.4455 42.3919 61.0554 42.8607 61.4771Z" fill="#BDC6CB"/>
<path d="M67.8542 62.1339H44.4547C43.1889 62.1339 42.1567 61.0552 42.1567 59.7888V45.6739C42.1567 44.4077 43.1889 43.376 44.4547 43.376H67.8542C69.1205 43.376 70.1522 44.4077 70.1522 45.6739V59.7888C70.1522 61.0552 69.1205 62.1339 67.8542 62.1339Z" fill="#DDE8EE"/>
<path d="M69.543 44.1265C69.5894 44.1265 69.5894 44.1735 69.5894 44.1735H64.0096C64.713 44.3612 65.1818 44.9705 65.1818 45.721V59.8358C65.1818 60.5863 64.713 61.1955 64.0096 61.3832H69.543H69.496V61.4302H44.4549C43.5638 61.4302 42.8604 60.7268 42.8604 59.8358V45.721C42.8604 44.8299 43.5638 44.1265 44.4549 44.1265H69.543Z" fill="#869292"/>
<path d="M62.9777 60.6329H45.158C44.2669 60.6329 43.5635 59.9295 43.5635 59.0855V46.4712C43.5635 45.6273 44.2669 44.9238 45.158 44.9238H62.9777C63.8216 44.9238 64.525 45.6273 64.525 46.4712V59.0855C64.525 59.9295 63.8216 60.6329 62.9777 60.6329Z" fill="#DDE8EE"/>
<path d="M67.6676 53.9746C67.0106 53.9746 66.4946 53.4586 66.4946 52.8022C66.4946 52.0988 67.0106 51.583 67.6676 51.583C68.3239 51.583 68.8862 52.0988 68.8862 52.8022C68.8862 53.4586 68.3239 53.9746 67.6676 53.9746Z" fill="#657280"/>
<path d="M67.6673 53.4585C67.2921 53.4585 67.0103 53.1302 67.0103 52.8021C67.0103 52.4269 67.2921 52.0986 67.6673 52.0986C68.0418 52.0986 68.3701 52.4269 68.3701 52.8021C68.3701 53.1302 68.042 53.4585 67.6673 53.4585Z" fill="#5E6976"/>
<path d="M28.6989 51.5356L21.7114 63.6344L21.8521 64.666L22.7902 64.2436L29.8241 52.0986L28.6989 51.5356Z" fill="#283848"/>
<path d="M28.6989 51.5356L21.7114 63.6344L21.8521 64.6189L29.2141 51.8169L28.6989 51.5356Z" fill="#2C3E50"/>
<path d="M29.4961 49.0034H29.9648V50.3633H29.4961V49.0034Z" fill="#3B4958"/>
<path d="M29.4961 49.0034H29.8714V50.3633H29.4961V49.0034Z" fill="#415162"/>
<path d="M29.7308 47.8315C30.0591 47.8315 30.3402 48.0656 30.3402 48.3939V49.3792C30.3402 49.7073 30.0591 49.9884 29.7308 49.9884C29.4027 49.9884 29.168 49.7072 29.168 49.3792V48.3939C29.168 48.0656 29.4027 47.8315 29.7308 47.8315Z" fill="#243241"/>
<path d="M29.7308 47.8315C30.0591 47.8315 30.3402 48.0656 30.3402 48.3939V49.1914C30.3402 49.5197 30.0591 49.8006 29.7308 49.8006C29.4027 49.8006 29.168 49.5195 29.168 49.1914V48.3939C29.168 48.0656 29.4027 47.8315 29.7308 47.8315Z" fill="#243241"/>
<path d="M30.2459 49.5661C30.1059 49.7072 29.9648 49.8008 29.7778 49.8008C29.4491 49.8008 29.168 49.5197 29.168 49.1915V48.394C29.168 48.3004 29.2144 48.2064 29.2614 48.1129C29.3556 48.0187 29.5425 47.9253 29.6838 47.9253C30.0119 47.9253 30.293 48.2064 30.293 48.5345V49.2851C30.2931 49.379 30.2931 49.5197 30.2459 49.5661Z" fill="#283848"/>
<path d="M29.1211 48.2529H30.3874C30.3874 48.2529 30.4344 48.2529 30.4344 48.3L30.3874 48.3471H29.1211C29.0747 48.3471 29.0747 48.3 29.0747 48.3C29.0746 48.2529 29.0746 48.2529 29.1211 48.2529ZM29.1211 49.5193H30.3874L30.4344 49.5657C30.4344 49.6129 30.3874 49.6129 30.3874 49.6129H29.1211C29.0747 49.6129 29.0747 49.6129 29.0747 49.5657C29.0746 49.5657 29.0746 49.5193 29.1211 49.5193ZM29.1211 49.3787H30.3874C30.3874 49.3787 30.4344 49.3787 30.4344 49.4251L30.3874 49.4721H29.1211C29.0747 49.4721 29.0747 49.4251 29.0747 49.4251C29.0746 49.3787 29.0746 49.3787 29.1211 49.3787ZM29.1211 49.1911H30.3874L30.4344 49.2375C30.4344 49.2846 30.3874 49.2846 30.3874 49.2846H29.1211C29.0747 49.2846 29.0747 49.2846 29.0747 49.2375C29.0746 49.2375 29.0746 49.1911 29.1211 49.1911ZM29.1211 49.0506H30.3874C30.3874 49.0506 30.4344 49.0506 30.4344 49.097C30.4344 49.1442 30.3874 49.1442 30.3874 49.1442H29.1211C29.0747 49.1442 29.0747 49.1442 29.0747 49.097C29.0746 49.0506 29.0746 49.0506 29.1211 49.0506ZM29.1211 48.9093H30.3874C30.3874 48.9093 30.4344 48.9093 30.4344 48.9565L30.3874 49.0036H29.1211C29.0747 49.0036 29.0747 48.9565 29.0747 48.9565C29.0746 48.9093 29.0746 48.9093 29.1211 48.9093ZM29.1211 48.7217H30.3874L30.4344 48.7687C30.4344 48.8159 30.3874 48.8159 30.3874 48.8159H29.1211C29.0747 48.8159 29.0747 48.8159 29.0747 48.7687C29.0746 48.7687 29.0746 48.7217 29.1211 48.7217ZM29.1211 48.5812H30.3874C30.3874 48.5812 30.4344 48.5812 30.4344 48.6282L30.3874 48.6754H29.1211C29.0747 48.6754 29.0747 48.6282 29.0747 48.6282C29.0746 48.5812 29.0746 48.5812 29.1211 48.5812ZM29.1211 48.3936H30.3874L30.4344 48.4406C30.4344 48.4878 30.3874 48.4878 30.3874 48.4878H29.1211C29.0747 48.4878 29.0747 48.4878 29.0747 48.4406C29.0746 48.4406 29.0746 48.3936 29.1211 48.3936Z" fill="#1A2530"/>
<path d="M29.1208 48.2529H30.387C30.387 48.3 30.387 48.3 30.34 48.3H29.0742C29.0742 48.2529 29.0742 48.2529 29.1208 48.2529ZM30.387 49.5193V49.5657C30.387 49.6129 30.387 49.6129 30.34 49.6129H29.0742V49.5657C29.0742 49.5657 29.0742 49.5193 29.1206 49.5193H30.387ZM30.387 49.3787V49.4251C30.387 49.4251 30.387 49.4721 30.34 49.4721H29.0742V49.4251C29.0742 49.3787 29.0742 49.3787 29.1206 49.3787H30.387ZM30.387 49.2375C30.387 49.2846 30.387 49.2846 30.34 49.2846H29.0742V49.2375C29.0742 49.2375 29.0742 49.1911 29.1206 49.1911H30.3869L30.387 49.2375ZM30.387 49.0506V49.097C30.387 49.097 30.387 49.1442 30.34 49.1442H29.0742V49.097C29.0742 49.0506 29.0742 49.0506 29.1206 49.0506H30.387ZM30.387 48.9093C30.387 48.9565 30.387 48.9565 30.34 48.9565H29.0742C29.0742 48.9093 29.0742 48.9093 29.1206 48.9093H30.387ZM30.387 48.7217V48.7687C30.387 48.7687 30.387 48.8159 30.34 48.8159H29.0742V48.7687C29.0742 48.7687 29.0742 48.7217 29.1206 48.7217H30.387ZM30.387 48.5812C30.387 48.6282 30.387 48.6282 30.34 48.6282H29.0742C29.0742 48.5812 29.0742 48.5812 29.1206 48.5812H30.387ZM30.387 48.3936V48.4406C30.387 48.4406 30.387 48.4878 30.34 48.4878H29.0742V48.4406C29.0742 48.4406 29.0742 48.3936 29.1206 48.3936H30.387Z" fill="#202D3B"/>
<path d="M35.8265 52.6611C35.076 55.3336 32.6374 57.3036 29.7307 57.3036C26.8229 57.3036 24.3843 55.3338 23.6343 52.6611H24.4783C25.1818 54.8649 27.2921 56.506 29.7307 56.506C32.2157 56.506 34.279 54.8649 34.9824 52.6611H35.8265Z" fill="#283848"/>
<path d="M23.8218 52.6611H24.4782C25.1816 54.8649 27.2919 56.506 29.7305 56.506C32.2155 56.506 34.2788 54.8649 34.9822 52.6611H35.6393C34.7476 55.0527 32.4502 56.7407 29.7305 56.7407C27.0572 56.7408 24.7122 55.0527 23.8218 52.6611Z" fill="#2C3E50"/>
<path d="M28.7461 51.911L28.9802 51.4887C29.3084 50.9263 30.34 51.5357 30.0119 52.0985L29.7778 52.5202L28.7461 51.911Z" fill="#CC3300"/>
<path d="M30.6683 51.6763L37.6558 63.7275L37.5145 64.7592L36.577 64.3847L29.5425 52.1919L30.6683 51.6763Z" fill="#283848"/>
<path d="M30.6681 51.6763L37.6556 63.7275L37.5144 64.7592L30.1523 51.9108L30.6681 51.6763Z" fill="#2C3E50"/>
<path d="M29.7306 50.2695C30.4341 50.2695 31.0434 50.8325 31.0434 51.5358C31.0434 52.2864 30.4342 52.8486 29.7306 52.8486C29.0272 52.8486 28.4644 52.2863 28.4644 51.5358C28.4637 51.3693 28.4959 51.2043 28.5593 51.0504C28.6227 50.8964 28.716 50.7566 28.8337 50.6389C28.9514 50.5211 29.0913 50.4279 29.2452 50.3645C29.3992 50.3011 29.5641 50.2688 29.7306 50.2695Z" fill="#ECF0F1"/>
<path d="M29.7304 50.4106C30.3868 50.4106 30.9026 50.9264 30.9026 51.5356C30.9026 52.1921 30.3868 52.7078 29.7304 52.7078C29.1206 52.7078 28.5576 52.1921 28.5576 51.5356C28.5576 50.9264 29.1206 50.4106 29.7304 50.4106Z" fill="#BFC2C3"/>
<path d="M29.7304 50.7852C30.1522 50.7852 30.4803 51.1603 30.4803 51.5356C30.4803 51.958 30.1522 52.2862 29.7304 52.2862C29.3081 52.2862 28.98 51.958 28.98 51.5356C28.98 51.1605 29.3081 50.7852 29.7304 50.7852Z" fill="#ACAFB0"/>
<path d="M29.7308 51.3008C29.8714 51.3008 30.0119 51.395 30.0119 51.5355C30.0119 51.6761 29.8714 51.8167 29.7308 51.8167C29.5897 51.8167 29.4961 51.6763 29.4961 51.5355C29.4961 51.395 29.5897 51.3008 29.7308 51.3008Z" fill="#717373"/>
<path d="M15.9438 62.1802H62.4618V67.5731H15.9438V62.1802Z" fill="#CCCCCC"/>
<path d="M16.8813 62.1802H17.0224V64.6658H16.8813V62.1802ZM17.6788 62.1802H17.8188V63.8689H17.6788V62.1802ZM18.5693 62.1802H18.7106V64.6658H18.5693V62.1802ZM19.367 62.1802H19.5074V63.8689H19.367V62.1802ZM20.3045 62.1802H20.4457V64.6658H20.3045V62.1802ZM21.102 62.1802H21.2426V63.8689H21.102V62.1802ZM22.0395 62.1802H22.1807V64.6658H22.0395V62.1802ZM22.8371 62.1802H22.9306V63.8689H22.8371V62.1802ZM23.7276 62.1802H23.8687V64.6658H23.7276V62.1802ZM24.5251 62.1802H24.6657V63.8689H24.5251V62.1802ZM25.4626 62.1802H25.6038V64.6658H25.4626V62.1802ZM26.2603 62.1802H26.4007V63.8689H26.2603V62.1802ZM27.1978 62.1802H27.339V64.6658H27.1978V62.1802ZM27.9482 62.1802H28.0888V63.8689H27.9482V62.1802ZM28.8857 62.1802H29.027V64.6658H28.8857V62.1802ZM29.6834 62.1802H29.824V63.8689H29.6834V62.1802ZM30.6209 62.1802H30.762V64.6658H30.6209V62.1802ZM31.4185 62.1802H31.559V63.8689H31.4185V62.1802ZM32.356 62.1802H32.4971V64.6658H32.356V62.1802ZM33.1065 62.1802H33.247V63.8689H33.1065V62.1802ZM34.044 62.1802H34.1853V64.6658H34.044V62.1802ZM34.8415 62.1802H34.9821V63.8689H34.8415V62.1802ZM35.779 62.1802H35.9203V64.6658H35.779V62.1802ZM36.5767 62.1802H36.7173V63.8689H36.5767V62.1802ZM37.5142 62.1802H37.6554V64.6658H37.5142V62.1802ZM38.2648 62.1802H38.4053V63.8689H38.2648V62.1802ZM39.2023 62.1802H39.3434V64.6658H39.2023V62.1802ZM39.9998 62.1802H40.1403V63.8689H39.9998V62.1802ZM40.9379 62.1802H41.0784V64.6658H40.9379V62.1802ZM41.7348 62.1802H41.8754V63.8689H41.7348V62.1802ZM42.626 62.1802H42.7665V64.6658H42.626V62.1802ZM43.4229 62.1802H43.5635V63.8689H43.4229V62.1802ZM44.361 62.1802H44.5017V64.6658H44.361V62.1802ZM45.1581 62.1802H45.2985V63.8689H45.1581V62.1802ZM46.0962 62.1802H46.2367V64.6658H46.0962V62.1802ZM46.8931 62.1802H47.0337V63.8689H46.8931V62.1802ZM47.7842 62.1802H47.9248V64.6658H47.7842V62.1802ZM48.5812 62.1802H48.7217V63.8689H48.5812V62.1802ZM49.5193 62.1802H49.6598V64.6658H49.5193V62.1802ZM50.3162 62.1802H50.4568V63.8689H50.3162V62.1802ZM51.2543 62.1802H51.3949V64.6658H51.2543V62.1802ZM52.0513 62.1802H52.1454V63.8689H52.0513V62.1802ZM52.9424 62.1802H53.0829V64.6658H52.9424V62.1802ZM53.7395 62.1802H53.8799V63.8689H53.7395V62.1802ZM54.6776 62.1802H54.8181V64.6658H54.6776V62.1802ZM55.4745 62.1802H55.6151V63.8689H55.4745V62.1802ZM56.4126 62.1802H56.5531V64.6658H56.4126V62.1802ZM57.1624 62.1802H57.3037V63.8689H57.1624V62.1802ZM58.1006 62.1802H58.2412V64.6658H58.1006V62.1802ZM58.8974 62.1802H59.0388V63.8689H58.8974V62.1802ZM59.8357 62.1802H59.9763V64.6658H59.8357V62.1802ZM60.6326 62.1802H60.7738V63.8689H60.6326V62.1802ZM61.5709 62.1802H61.7113V64.6658H61.5709V62.1802Z" fill="#373435"/>
<path d="M37.1865 60.7271L37.0929 62.6963L34.3726 61.7117L37.1865 60.7271Z" fill="#FFCC99"/>
<path d="M37.186 60.7271L37.0924 62.6963L36.8578 62.6028C36.7643 62.5086 36.6237 62.3681 36.5767 62.2275C36.4826 62.0871 36.9049 61.8994 36.952 61.7117C36.952 61.5713 36.5767 61.3835 36.5296 61.243C36.4826 61.1958 36.7643 60.9611 36.952 60.8206L37.186 60.7271Z" fill="#FFCC99"/>
<path d="M34.9826 61.9459L34.3726 61.7113L34.9826 61.4766V61.9459Z" fill="#4D4D4D"/>
<path d="M37.1862 60.7271H59.5546C60.7268 60.7271 60.7268 62.6963 59.5546 62.6963H37.0926C36.9992 62.4152 36.7174 62.2747 36.7174 62.1805C36.7174 62.0869 37.0926 61.8994 37.0926 61.7117C37.0926 61.4771 36.6238 61.2894 36.7174 61.1958C36.8109 61.1489 36.9521 60.9611 37.1862 60.7271Z" fill="#E6B800"/>
<path d="M36.8581 62.0399C36.9523 61.9463 37.0928 61.8058 37.0928 61.7116C37.0928 61.5711 36.9523 61.4769 36.811 61.3833H58.1009V62.0397H36.8581V62.0399Z" fill="#FFCC00"/>
<path d="M37.1862 60.7271H58.1008V61.3835H36.8109C36.7175 61.2892 36.6709 61.243 36.7175 61.1958C36.8109 61.1489 36.9522 60.9611 37.1862 60.7271Z" fill="#E6B800"/>
<path d="M58.1006 60.7271H58.71V62.6963H58.1006V60.7271Z" fill="#CFA600"/>
<path d="M58.71 60.7271H59.5545C60.7267 60.7271 60.7267 62.6963 59.5545 62.6963H58.71V60.7271Z" fill="#CC3300"/>
<path d="M33.9977 48.8161L34.0441 48.7689V46.3305H33.3407L33.9977 48.8161ZM67.9013 43.376H64.6658H67.8543H67.9013ZM68.2766 43.4232C68.1824 43.376 68.089 43.376 68.0419 43.376C68.089 43.376 68.1824 43.376 68.2766 43.4232ZM34.9822 61.9463L34.5605 61.8058L33.2007 62.1804H35.3104L35.2169 61.9927L34.9822 61.9463ZM41.9696 60.7269C41.7349 60.3518 41.5472 59.883 41.5472 59.3672V58.1943H41.3597L41.0315 58.2414H40.3749L39.9999 58.2885H37.9836C37.5143 58.2414 37.0455 58.2414 36.5768 58.1943L36.8108 59.1796C36.9991 59.836 36.8108 60.5394 36.3891 61.0082L37.1862 60.7269H41.9696Z" fill="#757575"/>
</svg>
