<svg width="35" height="41" viewBox="0 0 35 41" fill="none" xmlns="http://www.w3.org/2000/svg">
<path d="M35 40.7438V25.2391C35 16.9322 31.2993 13.0668 26.3628 13.0668C22.3795 13.0668 20.5956 15.6918 19.6024 17.5335V13.7009H12.0997C12.1988 16.24 12.0997 40.7438 12.0997 40.7438H19.6024V25.6408C19.6024 24.8349 19.6509 24.0265 19.8491 23.4504C20.391 21.836 21.6246 20.1635 23.6974 20.1635C26.4134 20.1635 27.4994 22.642 27.4994 26.2775V40.7464L35 40.7438ZM4.19418 10.0098C6.80895 10.0098 8.43897 7.93056 8.43897 5.33592C8.39047 2.68317 6.80895 0.664551 4.24268 0.664551C1.67641 0.664551 0 2.68317 0 5.33592C0 7.93309 1.62791 10.0098 4.14779 10.0098H4.19418ZM7.94554 40.7438V13.7009H0.444933V40.7438H7.94554Z" fill="#3EB489"/>
</svg>
