<svg width="50" height="41" viewBox="0 0 50 41" fill="none" xmlns="http://www.w3.org/2000/svg">
<path d="M50 5.41253C48.1192 6.22195 46.13 6.75992 44.0937 7.00987C46.2397 5.7536 47.8441 3.76431 48.6029 1.41893C46.5941 2.59441 44.3963 3.42229 42.1046 3.86678C40.6992 2.3852 38.8744 1.35509 36.8676 0.910374C34.8609 0.465659 32.7649 0.626918 30.8523 1.37318C28.9396 2.11945 27.2988 3.41619 26.1431 5.09482C24.9874 6.77345 24.3703 8.75631 24.372 10.7856C24.3641 11.5599 24.4438 12.3328 24.6096 13.0897C20.5317 12.8924 16.5419 11.8483 12.9011 10.0254C9.26022 8.20255 6.05029 5.64207 3.48113 2.51137C2.16211 4.73614 1.75336 7.3737 2.3383 9.88569C2.92325 12.3977 4.4578 14.5947 6.62873 16.0284C5.00684 15.9852 3.41926 15.5579 1.99974 14.7827V14.8929C2.0024 17.2284 2.8205 19.4916 4.31631 21.3017C5.81213 23.1118 7.89432 24.3582 10.2124 24.8311C9.33546 25.0591 8.43166 25.1712 7.52477 25.1642C6.87358 25.1755 6.22304 25.1176 5.58444 24.9914C6.24693 26.9985 7.52373 28.7538 9.23906 30.0154C10.9544 31.2771 13.0239 31.9831 15.1628 32.0364C11.5344 34.836 7.05969 36.3547 2.4536 36.3501C1.63356 36.3554 0.814013 36.3089 0 36.2108C4.68709 39.1908 10.1488 40.7672 15.7248 40.7494C34.587 40.7494 44.8999 25.3335 44.8999 11.9707C44.8999 11.5234 44.8841 11.0921 44.8623 10.6634C46.8842 9.2358 48.6252 7.45641 50 5.41253Z" fill="#3EB489"/>
</svg>
